<svg xmlns="http://www.w3.org/2000/svg" xmlns:xlink="http://www.w3.org/1999/xlink" id="Camada_1" x="0px" y="0px" viewBox="0 0 141.7 141.7" style="enable-background:new 0 0 141.7 141.7;" xml:space="preserve">
<style type="text/css">
	.st0{fill:#FF6900;}
</style>
<g>
	<g>
		<path class="st0" d="M132.4,87.9h-24.2l-23-23c-1.3-1.3-3.1-2-4.9-2h-4.9c-1.9,0-3.6,0.7-4.9,2l-8,8c-4.6,4.6-12.2,4.6-16.8,0    c-2.2-2.2-3.5-5.2-3.5-8.4c0-3.2,1.2-6.2,3.5-8.4l11.9-11.9c3.1-3.1,7.3-4.8,11.7-4.8h63.1V87.9z M112.4,77.7h9.8V49.7H69.3    c-1.7,0-3.3,0.7-4.4,1.8L52.9,63.4c-0.4,0.4-0.5,0.9-0.5,1.2c0,0.3,0.1,0.8,0.5,1.2c0.6,0.7,1.7,0.7,2.4,0l8-8    c3.2-3.2,7.5-5,12.1-5h4.9c4.6,0,8.9,1.8,12.1,5L112.4,77.7z"></path>
	</g>
	<g>
		<path class="st0" d="M73.2,104.1c-3.8,0-7.6-1.1-10.8-3.3L43.9,87.9H9.4V39.5h34.1l8.6-8.6c2.9-2.9,6.8-4.5,10.9-4.5h16.2    c5.6,0,10.2,4.6,10.2,10.2c0,7.2-5.9,13.1-13.1,13.1h-4.4V39.5h4.4c1.6,0,2.9-1.3,2.9-2.9l-16.2,0c-1.4,0-2.7,0.5-3.7,1.5    L47.7,49.7H19.6v28.1H47l21.2,14.6c2.6,1.8,5.9,2,8.7,0.7l31.2-14.8l4.4,9.2l-31.2,14.8C78.7,103.5,75.9,104.1,73.2,104.1z"></path>
	</g>
	<g>
		<path class="st0" d="M61.4,115.4c-2.4,0-4.8-0.6-6.9-2l-19-12c-4.5-2.9-7.2-7.8-7.2-13.1V44.6h10.2v43.7c0,1.8,0.9,3.5,2.5,4.5    l19,12c1.3,0.8,3,0.4,3.9-0.8l5.1-7.7l8.5,5.6l-5.1,7.7C69.9,113.3,65.7,115.4,61.4,115.4z"></path>
	</g>
</g>
</svg>