<svg xmlns="http://www.w3.org/2000/svg" xmlns:xlink="http://www.w3.org/1999/xlink" id="Camada_1" x="0px" y="0px" viewBox="0 0 1200 776.3" style="enable-background:new 0 0 1200 776.3;" xml:space="preserve">
<style type="text/css">
	.st0{fill:#F2CD00;}
	.st1{fill:#1D252D;}
	.st2{fill:#EDEDED;}
	.st3{fill:#FFFFFF;}
</style>
<path class="st0" d="M795.1,517.4v-90.1c0-6.1-3.3-11.7-8.5-14.8l-78.1-45.1c-5.3-3-11.8-3-17.1,0l-78.1,45.1  c-5.3,3-8.5,8.7-8.5,14.8v90.1c0,6.1,3.3,11.7,8.5,14.8l78.1,45.1c5.3,3,11.8,3,17.1,0l78.1-45.1  C791.9,529.1,795.1,523.4,795.1,517.4z"></path>
<path class="st1" d="M994.8,517.4v-90.1c0-6.1-3.3-11.7-8.5-14.8l-78.1-45.1c-5.3-3-11.8-3-17.1,0L813,412.4  c-5.3,3-8.5,8.7-8.5,14.8v90.1c0,6.1,3.3,11.7,8.5,14.8l78.1,45.1c5.3,3,11.8,3,17.1,0l78.1-45.1  C991.5,529.1,994.8,523.4,994.8,517.4z"></path>
<path class="st2" d="M1094.6,690.4v-90.1c0-6.1-3.3-11.7-8.5-14.8l-78.1-45.1c-5.3-3-11.8-3-17.1,0l-78.1,45.1  c-5.3,3-8.5,8.7-8.5,14.8v90.1c0,6.1,3.3,11.7,8.5,14.8l78.1,45.1c5.3,3,11.8,3,17.1,0l78.1-45.1  C1091.4,702.2,1094.6,696.5,1094.6,690.4z"></path>
<path class="st1" d="M695.6,690.4v-90.1c0-6.1-3.3-11.7-8.5-14.8L609,540.5c-5.3-3-11.8-3-17.1,0l-78.1,45.1  c-5.3,3-8.5,8.7-8.5,14.8v90.1c0,6.1,3.3,11.7,8.5,14.8l78.1,45.1c5.3,3,11.8,3,17.1,0l78.1-45.1  C692.4,702.2,695.6,696.5,695.6,690.4z"></path>
<path class="st2" d="M1194.4,517.4v-90.1c0-6.1-3.3-11.7-8.5-14.8l-78.1-45.1c-5.3-3-11.8-3-17.1,0l-78.1,45.1  c-5.3,3-8.5,8.7-8.5,14.8v90.1c0,6.1,3.3,11.7,8.5,14.8l78.1,45.1c5.3,3,11.8,3,17.1,0l78.1-45.1  C1191.2,529.1,1194.4,523.4,1194.4,517.4z"></path>
<path class="st2" d="M1094.7,344.5v-90.1c0-6.1-3.3-11.7-8.5-14.8l-78.1-45.1c-5.3-3-11.8-3-17.1,0L913,239.6  c-5.3,3-8.5,8.7-8.5,14.8v90.1c0,6.1,3.3,11.7,8.5,14.8l78.1,45.1c5.3,3,11.8,3,17.1,0l78.1-45.1  C1091.5,356.2,1094.7,350.6,1094.7,344.5z"></path>
<path class="st2" d="M495.5,344.5v-90.1c0-6.1-3.3-11.7-8.5-14.8l-78.1-45.1c-5.3-3-11.8-3-17.1,0l-78.1,45.1  c-5.3,3-8.5,8.7-8.5,14.8v90.1c0,6.1,3.3,11.7,8.5,14.8l78.1,45.1c5.3,3,11.8,3,17.1,0l78.1-45.1  C492.3,356.2,495.5,350.6,495.5,344.5z"></path>
<path class="st1" d="M695.2,344.5v-90.1c0-6.1-3.3-11.7-8.5-14.8l-78.1-45.1c-5.3-3-11.8-3-17.1,0l-78.1,45.1  c-5.3,3-8.5,8.7-8.5,14.8v90.1c0,6.1,3.3,11.7,8.5,14.8l78.1,45.1c5.3,3,11.8,3,17.1,0l78.1-45.1  C691.9,356.2,695.2,350.6,695.2,344.5z"></path>
<path class="st2" d="M595.4,171.9V81.7c0-6.1-3.3-11.7-8.5-14.8l-78.1-45.1c-5.3-3-11.8-3-17.1,0l-78.1,45.1  c-5.3,3-8.5,8.7-8.5,14.8v90.1c0,6.1,3.3,11.7,8.5,14.8l78.1,45.1c5.3,3,11.8,3,17.1,0l78.1-45.1C592.2,183.6,595.4,178,595.4,171.9  z"></path>
<path class="st2" d="M395.7,171.9V81.7c0-6.1-3.3-11.7-8.5-14.8l-78.1-45.1c-5.3-3-11.8-3-17.1,0L214,66.9c-5.3,3-8.5,8.7-8.5,14.8  v90.1c0,6.1,3.3,11.7,8.5,14.8l78.1,45.1c5.3,3,11.8,3,17.1,0l78.1-45.1C392.4,183.6,395.7,178,395.7,171.9z"></path>
<path class="st2" d="M195.9,171.9V81.7c0-6.1-3.3-11.7-8.5-14.8l-78.1-45.1c-5.3-3-11.8-3-17.1,0L14.2,66.9c-5.3,3-8.5,8.7-8.5,14.8  v90.1c0,6.1,3.3,11.7,8.5,14.8l78.1,45.1c5.3,3,11.8,3,17.1,0l78.1-45.1C192.7,183.6,195.9,178,195.9,171.9z"></path>
<g>
	<path class="st1" d="M671.3,520.1v-15.2c0-3.7-1.7-5.6-4.7-5.6c-3,0-4.8,1.9-4.8,5.6v15.2H654v-37.2h7.8v13.8   c1.8-2.3,4.1-4.4,8-4.4c5.9,0,9.3,3.9,9.3,10.1v17.7H671.3z"></path>
	<path class="st1" d="M702.8,520.1v-3.9c-1.8,2.3-4.1,4.4-8,4.4c-5.9,0-9.3-3.9-9.3-10.1v-17.7h7.8V508c0,3.7,1.7,5.6,4.7,5.6   c3,0,4.8-1.9,4.8-5.6v-15.2h7.8v27.3H702.8z"></path>
	<path class="st1" d="M733.8,520.6c-4.1,0-6.7-1.9-8.5-4.1v3.6h-7.8v-37.2h7.8v13.8c1.9-2.5,4.5-4.4,8.5-4.4c6.4,0,12.4,5,12.4,14.1   v0.1C746.2,515.6,740.3,520.6,733.8,520.6z M738.5,506.4c0-4.5-3.1-7.5-6.7-7.5c-3.6,0-6.6,3-6.6,7.5v0.1c0,4.5,3,7.5,6.6,7.5   c3.6,0,6.7-3,6.7-7.5V506.4z"></path>
</g>
<path class="st1" d="M709.8,458l6-10.4c0.4-0.6,1.1-1,1.8-1h6.2c1.6,0,2.6,1.7,1.8,3.1l-10.3,17.8c-0.4,0.6-1.1,1-1.8,1h-20.5  c-1.6,0-2.6-1.7-1.8-3.1l3.1-5.4c0.4-0.6,1.1-1,1.8-1h12C708.7,459,709.4,458.6,709.8,458z M684.4,443.3l6-10.4  c0.4-0.6,0.4-1.4,0-2.1l-3.1-5.4c-0.8-1.4-2.8-1.4-3.6,0l-10.3,17.8c-0.4,0.6-0.4,1.4,0,2.1l10.3,17.8c0.8,1.4,2.8,1.4,3.6,0  l3.1-5.4c0.4-0.6,0.4-1.4,0-2.1l-6-10.4C684,444.7,684,443.9,684.4,443.3z M691.2,423.3l3.1,5.4c0.4,0.6,1.1,1,1.8,1h12  c0.7,0,1.4,0.4,1.8,1l6,10.4c0.4,0.6,1.1,1,1.8,1h6.2c1.6,0,2.6-1.7,1.8-3.1l-10.3-17.8c-0.4-0.6-1.1-1-1.8-1h-20.5  C691.4,420.2,690.4,421.9,691.2,423.3z M707.1,435.4c-0.7-1.1-2.2-1.5-3.2-0.7c-1,0.7-1.2,2-0.6,3l2.5,4.3h-10.2l2.5-4.3  c0.6-1,0.4-2.3-0.6-3c-1.1-0.8-2.6-0.4-3.2,0.7l-4.4,7.7c-0.4,0.8-0.4,1.7,0,2.5l4.4,7.7c0.4,0.7,1.2,1.1,1.9,1.1  c0.5,0,0.9-0.1,1.3-0.4c0.9-0.7,1.1-2,0.6-3l-2.5-4.3h10.2l-2.5,4.3c-0.6,1-0.4,2.3,0.6,3c0.4,0.3,0.9,0.4,1.3,0.4  c0.8,0,1.5-0.4,1.9-1.1l4.4-7.7c0.4-0.8,0.4-1.7,0-2.5L707.1,435.4z"></path>
<g>
	<g>
		<path class="st3" d="M565.2,304.7h-6v-12.6h5.8c2.6,0,4.1,1.3,4.1,3.2v0c0,1.4-0.8,2.2-1.7,2.7c1.5,0.6,2.4,1.4,2.4,3.1v0    C569.9,303.6,568.1,304.7,565.2,304.7z M566.5,295.9c0-0.8-0.6-1.3-1.8-1.3h-2.7v2.7h2.5C565.7,297.2,566.5,296.8,566.5,295.9    L566.5,295.9z M567.2,300.9c0-0.8-0.6-1.4-2-1.4h-3.2v2.8h3.3C566.4,302.3,567.2,301.9,567.2,300.9L567.2,300.9z"></path>
		<path class="st3" d="M577.1,300.9H575v3.8h-2.8v-12.6h5.1c3,0,4.8,1.8,4.8,4.3v0C582.2,299.4,579.9,300.9,577.1,300.9z     M579.4,296.5c0-1.2-0.9-1.9-2.2-1.9H575v3.8h2.2C578.5,298.5,579.4,297.7,579.4,296.5L579.4,296.5z"></path>
		<path class="st3" d="M590.3,304.9c-3.9,0-6.7-2.9-6.7-6.5v0c0-3.6,2.8-6.5,6.7-6.5c3.9,0,6.7,2.9,6.7,6.5v0    C597,302,594.2,304.9,590.3,304.9z M594.1,298.4c0-2.2-1.6-3.9-3.8-3.9c-2.2,0-3.8,1.8-3.8,3.9v0c0,2.2,1.6,3.9,3.8,3.9    S594.1,300.6,594.1,298.4L594.1,298.4z"></path>
		<path class="st3" d="M607,290.4l-8,16.6h-2.3l7.9-16.6H607z"></path>
		<path class="st3" d="M614.2,304.7h-6v-12.6h5.8c2.6,0,4.1,1.3,4.1,3.2v0c0,1.4-0.8,2.2-1.7,2.7c1.5,0.6,2.4,1.4,2.4,3.1v0    C618.9,303.6,617.1,304.7,614.2,304.7z M615.5,295.9c0-0.8-0.6-1.3-1.8-1.3H611v2.7h2.5C614.7,297.2,615.5,296.8,615.5,295.9    L615.5,295.9z M616.2,300.9c0-0.8-0.6-1.4-2-1.4H611v2.8h3.3C615.5,302.3,616.2,301.9,616.2,300.9L616.2,300.9z"></path>
		<path class="st3" d="M626.1,300.9H624v3.8h-2.8v-12.6h5.1c3,0,4.8,1.8,4.8,4.3v0C631.2,299.4,628.9,300.9,626.1,300.9z     M628.4,296.5c0-1.2-0.9-1.9-2.2-1.9H624v3.8h2.2C627.6,298.5,628.4,297.7,628.4,296.5L628.4,296.5z"></path>
		<path class="st3" d="M637.7,304.9c-1.9,0-3.8-0.7-5.3-2l1.6-2c1.1,0.9,2.3,1.5,3.7,1.5c1.1,0,1.8-0.4,1.8-1.2v0    c0-0.7-0.4-1.1-2.5-1.6c-2.5-0.6-4.2-1.3-4.2-3.8v0c0-2.3,1.8-3.8,4.4-3.8c1.8,0,3.4,0.6,4.7,1.6l-1.4,2.1    c-1.1-0.8-2.2-1.2-3.3-1.2s-1.6,0.5-1.6,1.1v0c0,0.8,0.5,1.1,2.7,1.7c2.5,0.7,4,1.6,4,3.8v0C642.3,303.5,640.4,304.9,637.7,304.9z    "></path>
	</g>
</g>
<g>
	<g>
		<path class="st3" d="M838.9,479.6c-3.7,0-6.4-2.9-6.4-6.5v0c0-3.6,2.7-6.5,6.6-6.5c2.4,0,3.8,0.8,5,1.9l-1.8,2    c-1-0.9-2-1.4-3.2-1.4c-2.1,0-3.6,1.8-3.6,3.9v0c0,2.2,1.5,3.9,3.6,3.9c1.4,0,2.3-0.6,3.3-1.5l1.8,1.8    C842.8,478.8,841.3,479.6,838.9,479.6z"></path>
		<path class="st3" d="M852,479.6c-3.9,0-6.7-2.9-6.7-6.5v0c0-3.6,2.8-6.5,6.7-6.5c3.9,0,6.7,2.9,6.7,6.5v0    C858.7,476.7,855.9,479.6,852,479.6z M855.8,473.1c0-2.2-1.6-3.9-3.8-3.9c-2.2,0-3.8,1.8-3.8,3.9v0c0,2.2,1.6,3.9,3.8,3.9    S855.8,475.3,855.8,473.1L855.8,473.1z"></path>
		<path class="st3" d="M870,479.4l-6.1-8v8h-2.7v-12.6h2.5l5.9,7.7v-7.7h2.7v12.6H870z"></path>
		<path class="st3" d="M879.8,479.6c-1.9,0-3.8-0.7-5.3-2l1.6-2c1.1,0.9,2.3,1.5,3.8,1.5c1.1,0,1.8-0.4,1.8-1.2v0    c0-0.7-0.4-1.1-2.5-1.6c-2.5-0.6-4.2-1.3-4.2-3.8v0c0-2.3,1.8-3.8,4.4-3.8c1.8,0,3.4,0.6,4.7,1.6l-1.4,2.1    c-1.1-0.8-2.2-1.2-3.3-1.2s-1.6,0.5-1.6,1.1v0c0,0.8,0.5,1.1,2.7,1.7c2.5,0.7,4,1.6,4,3.8v0C884.4,478.2,882.5,479.6,879.8,479.6z    "></path>
		<path class="st3" d="M892.1,479.6c-3.4,0-5.4-1.9-5.4-5.6v-7.2h2.8v7.1c0,2,1,3.1,2.7,3.1c1.7,0,2.7-1,2.7-3v-7.2h2.8v7.1    C897.6,477.8,895.5,479.6,892.1,479.6z"></path>
		<path class="st3" d="M900.4,479.4v-12.6h2.8v10h6.3v2.5H900.4z"></path>
		<path class="st3" d="M915.4,469.4v10h-2.8v-10h-3.8v-2.5h10.4v2.5H915.4z"></path>
		<path class="st3" d="M926.9,479.6c-3.9,0-6.7-2.9-6.7-6.5v0c0-3.6,2.8-6.5,6.7-6.5c3.9,0,6.7,2.9,6.7,6.5v0    C933.6,476.7,930.8,479.6,926.9,479.6z M930.7,473.1c0-2.2-1.6-3.9-3.8-3.9c-2.2,0-3.8,1.8-3.8,3.9v0c0,2.2,1.6,3.9,3.8,3.9    S930.7,475.3,930.7,473.1L930.7,473.1z"></path>
		<path class="st3" d="M943.7,479.4l-2.7-4h-2.2v4h-2.8v-12.6h5.7c3,0,4.7,1.6,4.7,4.1v0c0,2-1.1,3.3-2.7,3.9l3.1,4.5H943.7z     M943.8,471.1c0-1.2-0.8-1.8-2.2-1.8h-2.7v3.6h2.8C943,473,943.8,472.2,943.8,471.1L943.8,471.1z"></path>
		<path class="st3" d="M949.2,479.4v-12.6h2.8v12.6H949.2z"></path>
		<path class="st3" d="M964.5,479.4l-1.1-2.8H958l-1.1,2.8H954l5.4-12.7h2.5l5.4,12.7H964.5z M960.7,470.1l-1.7,4.1h3.3L960.7,470.1    z"></path>
	</g>
</g>
<g>
	<path class="st3" d="M587.8,639.6h-6V627h5.8c2.6,0,4.1,1.3,4.1,3.2v0c0,1.4-0.8,2.2-1.7,2.7c1.5,0.6,2.4,1.4,2.4,3.1v0   C592.5,638.4,590.7,639.6,587.8,639.6z M589.1,630.7c0-0.8-0.6-1.3-1.8-1.3h-2.7v2.7h2.5C588.3,632.1,589.1,631.7,589.1,630.7   L589.1,630.7z M589.8,635.8c0-0.8-0.6-1.4-2-1.4h-3.2v2.8h3.3C589.1,637.2,589.8,636.7,589.8,635.8L589.8,635.8z"></path>
	<path class="st3" d="M599.7,635.8h-2.1v3.8h-2.8V627h5.1c3,0,4.8,1.8,4.8,4.3v0C604.8,634.3,602.5,635.8,599.7,635.8z M602,631.4   c0-1.2-0.9-1.9-2.2-1.9h-2.1v3.8h2.2C601.2,633.4,602,632.5,602,631.4L602,631.4z"></path>
	<path class="st3" d="M612.9,639.8c-3.9,0-6.7-2.9-6.7-6.5v0c0-3.6,2.8-6.5,6.7-6.5c3.9,0,6.7,2.9,6.7,6.5v0   C619.6,636.9,616.8,639.8,612.9,639.8z M616.7,633.3c0-2.2-1.6-3.9-3.8-3.9c-2.2,0-3.8,1.8-3.8,3.9v0c0,2.2,1.6,3.9,3.8,3.9   C615.2,637.2,616.7,635.5,616.7,633.3L616.7,633.3z"></path>
	<path class="st3" d="M531.1,661.3c-3.7,0-6.4-2.9-6.4-6.5v0c0-3.6,2.7-6.5,6.6-6.5c2.4,0,3.8,0.8,5,1.9l-1.8,2   c-1-0.9-2-1.4-3.2-1.4c-2.1,0-3.6,1.8-3.6,3.9v0c0,2.2,1.5,3.9,3.6,3.9c1.4,0,2.3-0.6,3.3-1.5l1.8,1.8   C534.9,660.5,533.5,661.3,531.1,661.3z"></path>
	<path class="st3" d="M543.7,661.3c-3.4,0-5.4-1.9-5.4-5.6v-7.2h2.8v7.1c0,2,1,3.1,2.7,3.1c1.7,0,2.7-1,2.7-3v-7.2h2.8v7.1   C549.2,659.5,547,661.3,543.7,661.3z"></path>
	<path class="st3" d="M556.5,661.3c-1.9,0-3.8-0.7-5.3-2l1.6-2c1.1,0.9,2.3,1.5,3.8,1.5c1.1,0,1.8-0.4,1.8-1.2v0   c0-0.7-0.4-1.1-2.5-1.6c-2.5-0.6-4.2-1.3-4.2-3.8v0c0-2.3,1.8-3.8,4.4-3.8c1.8,0,3.4,0.6,4.7,1.6l-1.4,2.1   c-1.1-0.8-2.2-1.2-3.3-1.2s-1.6,0.5-1.6,1.1v0c0,0.8,0.5,1.1,2.7,1.7c2.5,0.7,4,1.6,4,3.8v0C561.1,659.9,559.2,661.3,556.5,661.3z"></path>
	<path class="st3" d="M568.9,651.1v10h-2.8v-10h-3.8v-2.5h10.4v2.5H568.9z"></path>
	<path class="st3" d="M580.4,661.3c-3.9,0-6.7-2.9-6.7-6.5v0c0-3.6,2.8-6.5,6.7-6.5c3.9,0,6.7,2.9,6.7,6.5v0   C587.1,658.4,584.3,661.3,580.4,661.3z M584.2,654.8c0-2.2-1.6-3.9-3.8-3.9s-3.8,1.8-3.8,3.9v0c0,2.2,1.6,3.9,3.8,3.9   C582.7,658.8,584.2,657,584.2,654.8L584.2,654.8z"></path>
	<path class="st3" d="M599.4,661.1v-8.2l-3.5,5.4h-0.1l-3.5-5.3v8.1h-2.7v-12.6h3l3.3,5.3l3.3-5.3h3v12.6H599.4z"></path>
	<path class="st3" d="M605.3,661.1v-12.6h2.8v12.6H605.3z"></path>
	<path class="st3" d="M610.8,661.1V659l6.9-8H611v-2.4h10.2v2.1l-6.9,8h6.9v2.4H610.8z"></path>
	<path class="st3" d="M633.3,661.1l-1.1-2.8h-5.3l-1.1,2.8h-2.8l5.4-12.7h2.5l5.4,12.7H633.3z M629.5,651.8l-1.7,4.1h3.3   L629.5,651.8z"></path>
	<path class="st3" d="M643,661.1h-4.9v-12.6h4.9c3.9,0,6.7,2.7,6.7,6.2v0C649.7,658.4,646.9,661.1,643,661.1z M646.8,654.8   c0-2.2-1.5-3.8-3.8-3.8h-2.1v7.6h2.1C645.3,658.6,646.8,657.1,646.8,654.8L646.8,654.8z"></path>
	<path class="st3" d="M658.2,661.3c-3.9,0-6.7-2.9-6.7-6.5v0c0-3.6,2.8-6.5,6.7-6.5c3.9,0,6.7,2.9,6.7,6.5v0   C664.9,658.4,662.1,661.3,658.2,661.3z M662,654.8c0-2.2-1.6-3.9-3.8-3.9c-2.2,0-3.8,1.8-3.8,3.9v0c0,2.2,1.6,3.9,3.8,3.9   C660.5,658.8,662,657,662,654.8L662,654.8z"></path>
	<path class="st3" d="M671.8,661.3c-1.9,0-3.8-0.7-5.3-2l1.6-2c1.1,0.9,2.3,1.5,3.8,1.5c1.1,0,1.8-0.4,1.8-1.2v0   c0-0.7-0.4-1.1-2.5-1.6c-2.5-0.6-4.2-1.3-4.2-3.8v0c0-2.3,1.8-3.8,4.4-3.8c1.8,0,3.4,0.6,4.7,1.6l-1.4,2.1   c-1.1-0.8-2.2-1.2-3.3-1.2s-1.6,0.5-1.6,1.1v0c0,0.8,0.5,1.1,2.7,1.7c2.5,0.7,4,1.6,4,3.8v0C676.4,659.9,674.5,661.3,671.8,661.3z"></path>
</g>
<g>
	<path class="st1" d="M387.8,290.4h-6v-12.6h5.8c2.6,0,4.1,1.3,4.1,3.2v0c0,1.4-0.8,2.2-1.7,2.7c1.5,0.6,2.4,1.4,2.4,3.1v0   C392.5,289.2,390.6,290.4,387.8,290.4z M389,281.5c0-0.8-0.6-1.3-1.8-1.3h-2.7v2.7h2.5C388.2,282.9,389,282.5,389,281.5L389,281.5z    M389.7,286.6c0-0.8-0.6-1.4-2-1.4h-3.2v2.8h3.3C389,288,389.7,287.5,389.7,286.6L389.7,286.6z"></path>
	<path class="st1" d="M399.6,286.6h-2.1v3.8h-2.8v-12.6h5.1c3,0,4.8,1.8,4.8,4.3v0C404.7,285.1,402.4,286.6,399.6,286.6z    M401.9,282.2c0-1.2-0.9-1.9-2.2-1.9h-2.1v3.8h2.2C401.1,284.1,401.9,283.3,401.9,282.2L401.9,282.2z"></path>
	<path class="st1" d="M412.8,290.6c-3.9,0-6.7-2.9-6.7-6.5v0c0-3.6,2.8-6.5,6.7-6.5c3.9,0,6.7,2.9,6.7,6.5v0   C419.5,287.7,416.7,290.6,412.8,290.6z M416.6,284.1c0-2.2-1.6-3.9-3.8-3.9s-3.8,1.8-3.8,3.9v0c0,2.2,1.6,3.9,3.8,3.9   C415.1,288,416.6,286.3,416.6,284.1L416.6,284.1z"></path>
	<path class="st1" d="M344.7,301.9v2.7h6v2.5h-6v4.9h-2.8v-12.6h9.6v2.5H344.7z"></path>
	<path class="st1" d="M353.8,311.9v-12.6h2.8v12.6H353.8z"></path>
	<path class="st1" d="M368.5,311.9l-6.1-8v8h-2.7v-12.6h2.5l5.9,7.7v-7.7h2.7v12.6H368.5z"></path>
	<path class="st1" d="M383.3,311.9l-1.1-2.8h-5.3l-1.1,2.8h-2.8l5.4-12.7h2.5l5.4,12.7H383.3z M379.5,302.6l-1.7,4.1h3.3   L379.5,302.6z"></path>
	<path class="st1" d="M396.9,311.9l-6.1-8v8h-2.7v-12.6h2.5l5.9,7.7v-7.7h2.7v12.6H396.9z"></path>
	<path class="st1" d="M408.2,312.1c-3.7,0-6.4-2.9-6.4-6.5v0c0-3.6,2.7-6.5,6.6-6.5c2.4,0,3.8,0.8,5,1.9l-1.8,2   c-1-0.9-2-1.4-3.2-1.4c-2.1,0-3.6,1.8-3.6,3.9v0c0,2.2,1.5,3.9,3.6,3.9c1.4,0,2.3-0.6,3.3-1.5l1.8,1.8   C412,311.3,410.6,312.1,408.2,312.1z"></path>
	<path class="st1" d="M415.5,311.9v-12.6h9.5v2.5h-6.7v2.5h5.9v2.5h-5.9v2.6h6.8v2.5H415.5z"></path>
	<path class="st1" d="M427.7,311.9v-12.6h2.8v12.6H427.7z"></path>
	<path class="st1" d="M441.2,311.9l-2.7-4h-2.2v4h-2.8v-12.6h5.7c3,0,4.7,1.6,4.7,4.1v0c0,2-1.1,3.3-2.7,3.9l3.1,4.5H441.2z    M441.3,303.6c0-1.2-0.8-1.8-2.2-1.8h-2.7v3.6h2.8C440.5,305.5,441.3,304.7,441.3,303.6L441.3,303.6z"></path>
	<path class="st1" d="M452.7,312.1c-3.9,0-6.7-2.9-6.7-6.5v0c0-3.6,2.8-6.5,6.7-6.5c3.9,0,6.7,2.9,6.7,6.5v0   C459.4,309.2,456.6,312.1,452.7,312.1z M456.5,305.6c0-2.2-1.6-3.9-3.8-3.9s-3.8,1.8-3.8,3.9v0c0,2.2,1.6,3.9,3.8,3.9   C455,309.6,456.5,307.8,456.5,305.6L456.5,305.6z"></path>
</g>
<g>
	<path class="st1" d="M969.9,296v2.7h6v2.5h-6v4.9h-2.8v-12.6h9.6v2.5H969.9z"></path>
	<path class="st1" d="M979.1,306v-12.6h2.8V306H979.1z"></path>
	<path class="st1" d="M989.4,306.2c-1.9,0-3.8-0.7-5.3-2l1.6-2c1.1,0.9,2.3,1.5,3.8,1.5c1.1,0,1.8-0.4,1.8-1.2v0   c0-0.7-0.4-1.1-2.5-1.6c-2.5-0.6-4.2-1.3-4.2-3.8v0c0-2.3,1.8-3.8,4.4-3.8c1.8,0,3.4,0.6,4.7,1.6l-1.4,2.1   c-1.1-0.8-2.2-1.2-3.3-1.2s-1.6,0.5-1.6,1.1v0c0,0.8,0.5,1.1,2.7,1.7c2.5,0.7,4,1.6,4,3.8v0C994.1,304.8,992.2,306.2,989.4,306.2z"></path>
	<path class="st1" d="M1002.4,306.3c-3.7,0-6.4-2.9-6.4-6.5v0c0-3.6,2.7-6.5,6.6-6.5c2.4,0,3.8,0.8,5,1.9l-1.8,2   c-1-0.9-2-1.4-3.2-1.4c-2.1,0-3.6,1.8-3.6,3.9v0c0,2.2,1.5,3.9,3.6,3.9c1.4,0,2.3-0.6,3.3-1.5l1.8,1.8   C1006.2,305.4,1004.8,306.3,1002.4,306.3z"></path>
	<path class="st1" d="M1019.1,306l-1.1-2.8h-5.3l-1.1,2.8h-2.8l5.4-12.7h2.5l5.4,12.7H1019.1z M1015.3,296.7l-1.7,4.1h3.3   L1015.3,296.7z"></path>
	<path class="st1" d="M1023.9,306v-12.6h2.8v10h6.3v2.5H1023.9z"></path>
</g>
<g>
	<path class="st1" d="M1028.6,479.4c-3.7,0-6.4-2.9-6.4-6.5v0c0-3.6,2.7-6.5,6.6-6.5c2.4,0,3.8,0.8,5,1.9l-1.8,2   c-1-0.9-2-1.4-3.2-1.4c-2.1,0-3.6,1.8-3.6,3.9v0c0,2.2,1.5,3.9,3.6,3.9c1.4,0,2.3-0.6,3.3-1.5l1.8,1.8   C1032.5,478.6,1031.1,479.4,1028.6,479.4z"></path>
	<path class="st1" d="M1041.8,479.4c-3.9,0-6.7-2.9-6.7-6.5v0c0-3.6,2.8-6.5,6.7-6.5c3.9,0,6.7,2.9,6.7,6.5v0   C1048.4,476.5,1045.6,479.4,1041.8,479.4z M1045.6,472.9c0-2.2-1.6-3.9-3.8-3.9c-2.2,0-3.8,1.8-3.8,3.9v0c0,2.2,1.6,3.9,3.8,3.9   C1044,476.9,1045.6,475.1,1045.6,472.9L1045.6,472.9z"></path>
	<path class="st1" d="M1059.7,479.2l-6.1-8v8h-2.7v-12.6h2.5l5.9,7.7v-7.7h2.7v12.6H1059.7z"></path>
	<path class="st1" d="M1070.8,469.2v10h-2.8v-10h-3.8v-2.5h10.4v2.5H1070.8z"></path>
	<path class="st1" d="M1084.5,479.2l-1.2-2.8h-5.3l-1.1,2.8h-2.8l5.4-12.7h2.5l5.4,12.7H1084.5z M1080.7,469.9l-1.7,4.1h3.3   L1080.7,469.9z"></path>
	<path class="st1" d="M1095.3,479.2h-6v-12.6h5.8c2.6,0,4.1,1.3,4.1,3.2v0c0,1.4-0.8,2.2-1.7,2.7c1.5,0.6,2.4,1.4,2.4,3.1v0   C1100,478.1,1098.1,479.2,1095.3,479.2z M1096.5,470.4c0-0.8-0.6-1.3-1.8-1.3h-2.7v2.7h2.5C1095.8,471.7,1096.5,471.3,1096.5,470.4   L1096.5,470.4z M1097.2,475.4c0-0.8-0.6-1.4-2-1.4h-3.2v2.8h3.3C1096.5,476.8,1097.2,476.4,1097.2,475.4L1097.2,475.4z"></path>
	<path class="st1" d="M1102.4,479.2v-12.6h2.8v12.6H1102.4z"></path>
	<path class="st1" d="M1108.3,479.2v-12.6h2.8v10h6.3v2.5H1108.3z"></path>
	<path class="st1" d="M1119.5,479.2v-12.6h2.8v12.6H1119.5z"></path>
	<path class="st1" d="M1130.4,479.2h-4.9v-12.6h4.9c3.9,0,6.7,2.7,6.7,6.2v0C1137,476.5,1134.3,479.2,1130.4,479.2z M1134.1,472.9   c0-2.2-1.5-3.8-3.8-3.8h-2.1v7.6h2.1C1132.6,476.7,1134.1,475.2,1134.1,472.9L1134.1,472.9z"></path>
	<path class="st1" d="M1147.9,479.2l-1.2-2.8h-5.3l-1.1,2.8h-2.8l5.4-12.7h2.5l5.4,12.7H1147.9z M1144.1,469.9l-1.7,4.1h3.3   L1144.1,469.9z"></path>
	<path class="st1" d="M1157.7,479.2h-4.9v-12.6h4.9c3.9,0,6.7,2.7,6.7,6.2v0C1164.4,476.5,1161.6,479.2,1157.7,479.2z M1161.5,472.9   c0-2.2-1.5-3.8-3.8-3.8h-2.1v7.6h2.1C1159.9,476.7,1161.5,475.2,1161.5,472.9L1161.5,472.9z"></path>
	<path class="st1" d="M1166.8,479.2v-12.6h9.5v2.5h-6.7v2.5h5.9v2.5h-5.9v2.6h6.8v2.5H1166.8z"></path>
</g>
<g>
	<path class="st1" d="M943.9,644.3v2.7h6v2.5h-6v4.9h-2.8v-12.6h9.6v2.5H943.9z"></path>
	<path class="st1" d="M953,654.3v-12.6h2.8v12.6H953z"></path>
	<path class="st1" d="M967.8,654.3l-6.1-8v8h-2.7v-12.6h2.5l5.9,7.7v-7.7h2.7v12.6H967.8z"></path>
	<path class="st1" d="M982.5,654.3l-1.2-2.8H976l-1.1,2.8h-2.8l5.4-12.7h2.5l5.4,12.7H982.5z M978.7,645l-1.7,4.1h3.3L978.7,645z"></path>
	<path class="st1" d="M996.1,654.3l-6.1-8v8h-2.7v-12.6h2.5l5.9,7.7v-7.7h2.7v12.6H996.1z"></path>
	<path class="st1" d="M1007.4,654.5c-3.7,0-6.4-2.9-6.4-6.5v0c0-3.6,2.7-6.5,6.6-6.5c2.4,0,3.8,0.8,5,1.9l-1.8,2   c-1-0.9-2-1.4-3.2-1.4c-2.1,0-3.6,1.8-3.6,3.9v0c0,2.2,1.5,3.9,3.6,3.9c1.4,0,2.3-0.6,3.3-1.5l1.8,1.8   C1011.2,653.7,1009.8,654.5,1007.4,654.5z"></path>
	<path class="st1" d="M1014.7,654.3v-12.6h9.5v2.5h-6.7v2.5h5.9v2.5h-5.9v2.6h6.8v2.5H1014.7z"></path>
	<path class="st1" d="M1026.9,654.3v-12.6h2.8v12.6H1026.9z"></path>
	<path class="st1" d="M1040.4,654.3l-2.7-4h-2.2v4h-2.8v-12.6h5.7c3,0,4.7,1.6,4.7,4.1v0c0,2-1.1,3.3-2.7,3.9l3.1,4.5H1040.4z    M1040.5,646c0-1.2-0.8-1.8-2.2-1.8h-2.7v3.6h2.8C1039.7,647.9,1040.5,647.1,1040.5,646L1040.5,646z"></path>
	<path class="st1" d="M1051.9,654.5c-3.9,0-6.7-2.9-6.7-6.5v0c0-3.6,2.8-6.5,6.7-6.5s6.7,2.9,6.7,6.5v0   C1058.6,651.6,1055.8,654.5,1051.9,654.5z M1055.7,648c0-2.2-1.6-3.9-3.8-3.9c-2.2,0-3.8,1.8-3.8,3.9v0c0,2.2,1.6,3.9,3.8,3.9   C1054.2,652,1055.7,650.2,1055.7,648L1055.7,648z"></path>
</g>
<g>
	<path class="st1" d="M487.7,120.8h-6v-12.6h5.8c2.6,0,4.1,1.3,4.1,3.2v0c0,1.4-0.8,2.2-1.7,2.7c1.5,0.6,2.4,1.4,2.4,3.1v0   C492.4,119.6,490.5,120.8,487.7,120.8z M489,111.9c0-0.8-0.6-1.3-1.8-1.3h-2.7v2.7h2.5C488.2,113.3,489,112.9,489,111.9L489,111.9z    M489.7,116.9c0-0.8-0.6-1.4-2-1.4h-3.2v2.8h3.3C488.9,118.3,489.7,117.9,489.7,116.9L489.7,116.9z"></path>
	<path class="st1" d="M499.5,117h-2.1v3.8h-2.8v-12.6h5.1c3,0,4.8,1.8,4.8,4.3v0C504.6,115.5,502.4,117,499.5,117z M501.8,112.6   c0-1.2-0.9-1.9-2.2-1.9h-2.1v3.8h2.2C501,114.5,501.8,113.7,501.8,112.6L501.8,112.6z"></path>
	<path class="st1" d="M512.8,121c-3.9,0-6.7-2.9-6.7-6.5v0c0-3.6,2.8-6.5,6.7-6.5c3.9,0,6.7,2.9,6.7,6.5v0   C519.5,118,516.7,121,512.8,121z M516.6,114.5c0-2.2-1.6-3.9-3.8-3.9c-2.2,0-3.8,1.8-3.8,3.9v0c0,2.2,1.6,3.9,3.8,3.9   C515,118.4,516.6,116.7,516.6,114.5L516.6,114.5z"></path>
	<path class="st1" d="M429.7,142.5c-3.7,0-6.4-2.9-6.4-6.5v0c0-3.6,2.7-6.5,6.6-6.5c2.4,0,3.8,0.8,5,1.9l-1.8,2   c-1-0.9-2-1.4-3.2-1.4c-2.1,0-3.6,1.8-3.6,3.9v0c0,2.2,1.5,3.9,3.6,3.9c1.4,0,2.3-0.6,3.3-1.5l1.8,1.8   C433.5,141.7,432.1,142.5,429.7,142.5z"></path>
	<path class="st1" d="M442.8,142.5c-3.9,0-6.7-2.9-6.7-6.5v0c0-3.6,2.8-6.5,6.7-6.5c3.9,0,6.7,2.9,6.7,6.5v0   C449.5,139.6,446.7,142.5,442.8,142.5z M446.6,136c0-2.2-1.6-3.9-3.8-3.9c-2.2,0-3.8,1.8-3.8,3.9v0c0,2.2,1.6,3.9,3.8,3.9   C445,140,446.6,138.2,446.6,136L446.6,136z"></path>
	<path class="st1" d="M460.7,142.3l-6.1-8v8h-2.7v-12.6h2.5l5.9,7.7v-7.7h2.7v12.6H460.7z"></path>
	<path class="st1" d="M471.8,132.3v10H469v-10h-3.8v-2.5h10.4v2.5H471.8z"></path>
	<path class="st1" d="M485.5,142.3l-1.1-2.8H479l-1.1,2.8h-2.8l5.4-12.7h2.5l5.4,12.7H485.5z M481.7,133L480,137h3.3L481.7,133z"></path>
	<path class="st1" d="M496.3,142.3h-6v-12.6h5.8c2.6,0,4.1,1.3,4.1,3.2v0c0,1.4-0.8,2.2-1.7,2.7c1.5,0.6,2.4,1.4,2.4,3.1v0   C501,141.2,499.1,142.3,496.3,142.3z M497.6,133.5c0-0.8-0.6-1.3-1.8-1.3H493v2.7h2.5C496.8,134.8,497.6,134.4,497.6,133.5   L497.6,133.5z M498.3,138.5c0-0.8-0.6-1.4-2-1.4H493v2.8h3.3C497.5,139.9,498.3,139.5,498.3,138.5L498.3,138.5z"></path>
	<path class="st1" d="M503.4,142.3v-12.6h2.8v12.6H503.4z"></path>
	<path class="st1" d="M509.3,142.3v-12.6h2.8v10h6.3v2.5H509.3z"></path>
	<path class="st1" d="M520.6,142.3v-12.6h2.8v12.6H520.6z"></path>
	<path class="st1" d="M531.4,142.3h-4.9v-12.6h4.9c3.9,0,6.7,2.7,6.7,6.2v0C538,139.6,535.3,142.3,531.4,142.3z M535.2,136   c0-2.2-1.5-3.8-3.8-3.8h-2.1v7.6h2.1C533.6,139.8,535.2,138.3,535.2,136L535.2,136z"></path>
	<path class="st1" d="M549,142.3l-1.1-2.8h-5.3l-1.1,2.8h-2.8l5.4-12.7h2.5l5.4,12.7H549z M545.2,133l-1.7,4.1h3.3L545.2,133z"></path>
	<path class="st1" d="M558.7,142.3h-4.9v-12.6h4.9c3.9,0,6.7,2.7,6.7,6.2v0C565.4,139.6,562.7,142.3,558.7,142.3z M562.5,136   c0-2.2-1.5-3.8-3.8-3.8h-2.1v7.6h2.1C561,139.8,562.5,138.3,562.5,136L562.5,136z"></path>
	<path class="st1" d="M567.8,142.3v-12.6h9.5v2.5h-6.7v2.5h5.9v2.5h-5.9v2.6h6.8v2.5H567.8z"></path>
</g>
<g>
	<path class="st1" d="M292.6,120.8h-6v-12.6h5.8c2.6,0,4.1,1.3,4.1,3.2v0c0,1.4-0.8,2.2-1.7,2.7c1.5,0.6,2.4,1.4,2.4,3.1v0   C297.3,119.6,295.5,120.8,292.6,120.8z M293.9,111.9c0-0.8-0.6-1.3-1.8-1.3h-2.7v2.7h2.5C293.1,113.3,293.9,112.9,293.9,111.9   L293.9,111.9z M294.6,116.9c0-0.8-0.6-1.4-2-1.4h-3.2v2.8h3.3C293.8,118.3,294.6,117.9,294.6,116.9L294.6,116.9z"></path>
	<path class="st1" d="M304.5,117h-2.1v3.8h-2.8v-12.6h5.1c3,0,4.8,1.8,4.8,4.3v0C309.6,115.5,307.3,117,304.5,117z M306.8,112.6   c0-1.2-0.9-1.9-2.2-1.9h-2.1v3.8h2.2C305.9,114.5,306.8,113.7,306.8,112.6L306.8,112.6z"></path>
	<path class="st1" d="M317.7,121c-3.9,0-6.7-2.9-6.7-6.5v0c0-3.6,2.8-6.5,6.7-6.5c3.9,0,6.7,2.9,6.7,6.5v0   C324.4,118,321.6,121,317.7,121z M321.5,114.5c0-2.2-1.6-3.9-3.8-3.9c-2.2,0-3.8,1.8-3.8,3.9v0c0,2.2,1.6,3.9,3.8,3.9   C320,118.4,321.5,116.7,321.5,114.5L321.5,114.5z"></path>
	<path class="st1" d="M275.6,132.3v2.7h6v2.5h-6v4.9h-2.8v-12.6h9.6v2.5H275.6z"></path>
	<path class="st1" d="M284.7,142.3v-12.6h2.8v12.6H284.7z"></path>
	<path class="st1" d="M295.1,142.5c-1.9,0-3.8-0.7-5.3-2l1.6-2c1.1,0.9,2.3,1.5,3.8,1.5c1.1,0,1.8-0.4,1.8-1.2v0   c0-0.7-0.4-1.1-2.5-1.6c-2.5-0.6-4.2-1.3-4.2-3.8v0c0-2.3,1.8-3.8,4.4-3.8c1.8,0,3.4,0.6,4.7,1.6l-1.4,2.1   c-1.1-0.8-2.2-1.2-3.3-1.2c-1.1,0-1.6,0.5-1.6,1.1v0c0,0.8,0.5,1.1,2.7,1.7c2.5,0.7,4,1.6,4,3.8v0   C299.7,141.1,297.8,142.5,295.1,142.5z"></path>
	<path class="st1" d="M308,142.5c-3.7,0-6.4-2.9-6.4-6.5v0c0-3.6,2.7-6.5,6.6-6.5c2.4,0,3.8,0.8,5,1.9l-1.8,2c-1-0.9-2-1.4-3.2-1.4   c-2.1,0-3.6,1.8-3.6,3.9v0c0,2.2,1.5,3.9,3.6,3.9c1.4,0,2.3-0.6,3.3-1.5l1.8,1.8C311.9,141.7,310.4,142.5,308,142.5z"></path>
	<path class="st1" d="M324.7,142.3l-1.1-2.8h-5.3l-1.1,2.8h-2.8l5.4-12.7h2.5l5.4,12.7H324.7z M320.9,133l-1.7,4.1h3.3L320.9,133z"></path>
	<path class="st1" d="M329.6,142.3v-12.6h2.8v10h6.3v2.5H329.6z"></path>
</g>
<g>
	<path class="st1" d="M87.2,110h-6V97.4H87c2.6,0,4.1,1.3,4.1,3.2v0c0,1.4-0.8,2.2-1.7,2.7c1.5,0.6,2.4,1.4,2.4,3.1v0   C91.9,108.8,90,110,87.2,110z M88.4,101.1c0-0.8-0.6-1.3-1.8-1.3h-2.7v2.7h2.5C87.6,102.5,88.4,102.1,88.4,101.1L88.4,101.1z    M89.1,106.2c0-0.8-0.6-1.4-2-1.4h-3.2v2.8h3.3C88.4,107.6,89.1,107.1,89.1,106.2L89.1,106.2z"></path>
	<path class="st1" d="M99,106.2h-2.1v3.8h-2.8V97.4h5.1c3,0,4.8,1.8,4.8,4.3v0C104.1,104.7,101.8,106.2,99,106.2z M101.3,101.8   c0-1.2-0.9-1.9-2.2-1.9h-2.1v3.8h2.2C100.5,103.8,101.3,102.9,101.3,101.8L101.3,101.8z"></path>
	<path class="st1" d="M112.2,110.2c-3.9,0-6.7-2.9-6.7-6.5v0c0-3.6,2.8-6.5,6.7-6.5c3.9,0,6.7,2.9,6.7,6.5v0   C118.9,107.3,116.1,110.2,112.2,110.2z M116.1,103.7c0-2.2-1.6-3.9-3.8-3.9s-3.8,1.8-3.8,3.9v0c0,2.2,1.6,3.9,3.8,3.9   C114.5,107.7,116.1,105.9,116.1,103.7L116.1,103.7z"></path>
	<path class="st1" d="M55.3,121.5v2.7h6v2.5h-6v4.9h-2.8V119h9.6v2.5H55.3z"></path>
	<path class="st1" d="M70.5,131.7c-3.9,0-6.7-2.9-6.7-6.5v0c0-3.6,2.8-6.5,6.7-6.5c3.9,0,6.7,2.9,6.7,6.5v0   C77.1,128.8,74.3,131.7,70.5,131.7z M74.3,125.3c0-2.2-1.6-3.9-3.8-3.9s-3.8,1.8-3.8,3.9v0c0,2.2,1.6,3.9,3.8,3.9   C72.7,129.2,74.3,127.4,74.3,125.3L74.3,125.3z"></path>
	<path class="st1" d="M79.6,131.5V119h2.8v10h6.3v2.5H79.6z"></path>
	<path class="st1" d="M98.6,131.5v-5h-5.1v5h-2.8V119h2.8v5h5.1v-5h2.8v12.6H98.6z"></path>
	<path class="st1" d="M113.7,131.5l-1.1-2.8h-5.3l-1.1,2.8h-2.8l5.4-12.7h2.5l5.4,12.7H113.7z M109.9,122.2l-1.7,4.1h3.3   L109.9,122.2z"></path>
	<path class="st1" d="M128.8,131.5h-4.9V119h4.9c3.9,0,6.7,2.7,6.7,6.2v0C135.5,128.8,132.8,131.5,128.8,131.5z M132.6,125.3   c0-2.2-1.5-3.8-3.8-3.8h-2.1v7.6h2.1C131.1,129,132.6,127.5,132.6,125.3L132.6,125.3z"></path>
	<path class="st1" d="M138,131.5V119h9.5v2.5h-6.7v2.5h5.9v2.5h-5.9v2.6h6.8v2.5H138z"></path>
	<path class="st1" d="M45.9,149.3h-2.1v3.8H41v-12.6h5.1c3,0,4.8,1.8,4.8,4.3v0C51,147.8,48.7,149.3,45.9,149.3z M48.2,144.9   c0-1.2-0.9-1.9-2.2-1.9h-2.1v3.8H46C47.4,146.9,48.2,146,48.2,144.9L48.2,144.9z"></path>
	<path class="st1" d="M61.1,153.1l-1.1-2.8h-5.3l-1.1,2.8h-2.8l5.4-12.7h2.5l5.4,12.7H61.1z M57.3,143.7l-1.7,4.1H59L57.3,143.7z"></path>
	<path class="st1" d="M71.2,153.3c-3.9,0-6.6-2.7-6.6-6.5v0c0-3.6,2.8-6.5,6.6-6.5c2.3,0,3.6,0.6,4.9,1.7l-1.7,2.1   c-1-0.8-1.8-1.3-3.3-1.3c-2,0-3.6,1.8-3.6,3.9v0c0,2.3,1.6,4,3.8,4c1,0,1.9-0.3,2.6-0.8v-1.8h-2.8v-2.4h5.5v5.5   C75.3,152.4,73.5,153.3,71.2,153.3z"></path>
	<path class="st1" d="M88.6,153.1l-1.1-2.8h-5.3l-1.1,2.8h-2.8l5.4-12.7h2.5l5.4,12.7H88.6z M84.8,143.7l-1.7,4.1h3.3L84.8,143.7z"></path>
	<path class="st1" d="M103.2,153.1v-8.2l-3.5,5.4h-0.1l-3.5-5.3v8.1h-2.7v-12.6h3l3.3,5.3l3.3-5.3h3v12.6H103.2z"></path>
	<path class="st1" d="M109,153.1v-12.6h9.5v2.5h-6.7v2.5h5.9v2.5h-5.9v2.6h6.8v2.5H109z"></path>
	<path class="st1" d="M129.8,153.1l-6.1-8v8H121v-12.6h2.5l5.9,7.7v-7.7h2.7v12.6H129.8z"></path>
	<path class="st1" d="M140.9,143.1v10h-2.8v-10h-3.8v-2.5h10.4v2.5H140.9z"></path>
	<path class="st1" d="M152.4,153.3c-3.9,0-6.7-2.9-6.7-6.5v0c0-3.6,2.8-6.5,6.7-6.5c3.9,0,6.7,2.9,6.7,6.5v0   C159.1,150.4,156.3,153.3,152.4,153.3z M156.2,146.8c0-2.2-1.6-3.9-3.8-3.9s-3.8,1.8-3.8,3.9v0c0,2.2,1.6,3.9,3.8,3.9   S156.2,149,156.2,146.8L156.2,146.8z"></path>
</g>
</svg>