<?xml version="1.0" encoding="UTF-8"?><svg id="Camada_2" xmlns="http://www.w3.org/2000/svg" xmlns:xlink="http://www.w3.org/1999/xlink" viewBox="0 0 222.09 41.65"><defs><style>.cls-1{fill:url(#Gradiente_sem_nome_8);}.cls-2{fill:#1d252d;}</style><linearGradient id="Gradiente_sem_nome_8" x1="0" y1="20.82" x2="45.4" y2="20.82" gradientUnits="userSpaceOnUse"><stop offset="0" stop-color="#ff6900"/><stop offset=".99" stop-color="#f2cd00"/></linearGradient></defs><g id="Camada_1-2"><g><g><path class="cls-2" d="M71.55,35.24v-13.14c0-3.17-1.49-4.79-4.05-4.79s-4.18,1.63-4.18,4.79v13.14h-6.68V3.14h6.68V15.01c1.54-1.98,3.52-3.78,6.9-3.78,5.06,0,8,3.34,8,8.75v15.26h-6.68Z"/><path class="cls-2" d="M98.76,35.24v-3.34c-1.54,1.98-3.52,3.78-6.9,3.78-5.06,0-8-3.34-8-8.75V11.67h6.68v13.14c0,3.17,1.49,4.79,4.04,4.79s4.18-1.63,4.18-4.79V11.67h6.68v23.56h-6.68Z"/><path class="cls-2" d="M125.44,35.68c-3.56,0-5.76-1.63-7.34-3.52v3.08h-6.68V3.14h6.68V15.06c1.63-2.2,3.87-3.82,7.34-3.82,5.49,0,10.73,4.31,10.73,12.18v.09c0,7.87-5.14,12.18-10.73,12.18Zm4.04-12.27c0-3.91-2.64-6.51-5.76-6.51s-5.72,2.59-5.72,6.51v.09c0,3.91,2.59,6.51,5.72,6.51s5.76-2.55,5.76-6.51v-.09Z"/></g><g><path class="cls-2" d="M149.66,20.9c-.8,0-1.61-.28-2.25-.85l.69-.82c.48,.39,.98,.64,1.58,.64,.48,0,.76-.19,.76-.5h0c0-.31-.18-.46-1.07-.69-1.07-.27-1.75-.57-1.75-1.62h0c0-.98,.77-1.61,1.85-1.61,.77,0,1.43,.24,1.96,.67l-.6,.88c-.47-.33-.93-.52-1.38-.52s-.68,.2-.68,.46v.02c0,.35,.23,.46,1.14,.69,1.07,.28,1.68,.67,1.68,1.59h0c0,1.07-.8,1.66-1.94,1.66Z"/><path class="cls-2" d="M152.62,20.82v-5.29h3.99v1.04h-2.83v1.07h2.49v1.04h-2.49v1.11h2.87v1.04h-4.03Z"/><path class="cls-2" d="M160.89,20.82l-1.13-1.69h-.91v1.69h-1.16v-5.29h2.42c1.25,0,2,.66,2,1.75h0c0,.87-.46,1.41-1.13,1.66l1.29,1.89h-1.36Zm.02-3.48c0-.5-.35-.76-.91-.76h-1.16v1.52h1.18c.57,0,.89-.3,.89-.75v-.02Z"/><path class="cls-2" d="M165.71,20.86h-1.03l-2.14-5.33h1.28l1.38,3.73,1.38-3.73h1.26l-2.14,5.33Z"/><path class="cls-2" d="M168.71,20.82v-5.29h1.16v5.29h-1.16Z"/><path class="cls-2" d="M170.97,18.19c0-1.51,1.13-2.74,2.76-2.74,1,0,1.6,.33,2.09,.82l-.74,.85c-.41-.37-.82-.6-1.35-.6-.89,0-1.53,.74-1.53,1.66s.63,1.67,1.53,1.67c.6,0,.98-.24,1.39-.62l.74,.75c-.51,.54-1.07,.89-1.97,.94l-.49,1.22-.96-.4,.6-.89c-1.22-.28-2.06-1.35-2.06-2.65Z"/><path class="cls-2" d="M179.35,20.92c-1.63,0-2.8-1.22-2.8-2.72h0c0-1.52,1.19-2.75,2.82-2.75s2.8,1.22,2.8,2.72v.02c0,1.5-1.19,2.74-2.82,2.74Zm1.6-2.74c0-.91-.67-1.66-1.6-1.66s-1.59,.74-1.59,1.65v.02c0,.91,.67,1.66,1.6,1.66s1.59-.74,1.59-1.65h0Z"/><path class="cls-2" d="M185.05,20.9c-.8,0-1.61-.28-2.25-.85l.69-.82c.48,.39,.98,.64,1.58,.64,.48,0,.76-.19,.76-.5h0c0-.31-.18-.46-1.07-.69-1.07-.27-1.75-.57-1.75-1.62h0c0-.98,.77-1.61,1.85-1.61,.77,0,1.43,.24,1.96,.67l-.6,.88c-.47-.33-.93-.52-1.38-.52s-.68,.2-.68,.46v.02c0,.35,.23,.46,1.14,.69,1.07,.28,1.68,.67,1.68,1.59h0c0,1.07-.8,1.66-1.94,1.66Z"/><path class="cls-2" d="M150.26,29.98c-1.56,0-2.71-1.2-2.71-2.72h0c0-1.52,1.13-2.75,2.76-2.75,1,0,1.6,.33,2.09,.82l-.74,.85c-.41-.37-.82-.6-1.35-.6-.89,0-1.53,.74-1.53,1.65v.02c0,.91,.63,1.66,1.53,1.66,.6,0,.98-.24,1.39-.62l.74,.75c-.54,.58-1.15,.94-2.17,.94Z"/><path class="cls-2" d="M155.78,29.98c-1.63,0-2.8-1.22-2.8-2.72h0c0-1.52,1.19-2.75,2.82-2.75s2.8,1.22,2.8,2.72v.02c0,1.5-1.19,2.74-2.82,2.74Zm1.6-2.74c0-.91-.67-1.66-1.6-1.66s-1.59,.74-1.59,1.65v.02c0,.91,.67,1.66,1.6,1.66s1.59-.74,1.59-1.65h0Z"/><path class="cls-2" d="M163.76,29.89v-3.45l-1.49,2.26h-.03l-1.47-2.24v3.43h-1.14v-5.29h1.26l1.39,2.24,1.39-2.24h1.26v5.29h-1.16Z"/><path class="cls-2" d="M168.24,28.31h-.88v1.59h-1.16v-5.29h2.16c1.26,0,2.03,.75,2.03,1.83v.02c0,1.22-.95,1.86-2.14,1.86Zm.96-1.85c0-.52-.36-.8-.94-.8h-.9v1.62h.92c.58,0,.92-.35,.92-.8v-.02Z"/><path class="cls-2" d="M174.65,29.89l-.48-1.19h-2.24l-.48,1.19h-1.19l2.27-5.33h1.07l2.27,5.33h-1.22Zm-1.6-3.93l-.7,1.72h1.41l-.7-1.72Z"/><path class="cls-2" d="M179.89,29.89l-1.13-1.69h-.91v1.69h-1.16v-5.29h2.42c1.25,0,2,.66,2,1.75h0c0,.87-.46,1.41-1.13,1.66l1.29,1.89h-1.36Zm.02-3.48c0-.5-.35-.76-.91-.76h-1.16v1.52h1.18c.57,0,.89-.3,.89-.75v-.02Z"/><path class="cls-2" d="M184.54,25.68v4.22h-1.16v-4.22h-1.61v-1.07h4.38v1.07h-1.61Z"/><path class="cls-2" d="M187.09,29.89v-5.29h1.16v5.29h-1.16Z"/><path class="cls-2" d="M189.58,29.89v-5.29h1.16v4.23h2.64v1.06h-3.8Z"/><path class="cls-2" d="M197.57,29.89v-2.12h-2.15v2.12h-1.16v-5.29h1.16v2.09h2.15v-2.09h1.16v5.29h-1.16Z"/><path class="cls-2" d="M203.94,29.89l-.48-1.19h-2.24l-.48,1.19h-1.19l2.27-5.33h1.07l2.27,5.33h-1.22Zm-1.6-3.93l-.7,1.72h1.41l-.7-1.72Z"/><path class="cls-2" d="M208.03,29.89h-2.06v-5.29h2.06c1.66,0,2.81,1.14,2.81,2.63v.02c0,1.49-1.15,2.65-2.81,2.65Zm1.6-2.65c0-.94-.64-1.6-1.6-1.6h-.9v3.19h.9c.95,0,1.6-.64,1.6-1.58h0Z"/><path class="cls-2" d="M214.45,29.98c-1.63,0-2.8-1.22-2.8-2.72h0c0-1.52,1.19-2.75,2.82-2.75s2.8,1.22,2.8,2.72v.02c0,1.5-1.19,2.74-2.82,2.74Zm1.6-2.74c0-.91-.67-1.66-1.6-1.66s-1.59,.74-1.59,1.65v.02c0,.91,.67,1.66,1.6,1.66s1.59-.74,1.59-1.65h0Z"/><path class="cls-2" d="M220.15,29.97c-.8,0-1.61-.28-2.25-.85l.69-.82c.48,.39,.98,.64,1.58,.64,.48,0,.76-.19,.76-.5h0c0-.31-.18-.46-1.07-.69-1.07-.27-1.75-.57-1.75-1.62h0c0-.98,.77-1.61,1.85-1.61,.77,0,1.43,.24,1.96,.67l-.6,.88c-.47-.33-.93-.52-1.38-.52s-.68,.2-.68,.46v.02c0,.35,.23,.46,1.14,.69,1.07,.28,1.68,.67,1.68,1.59h0c0,1.07-.8,1.66-1.94,1.66Z"/></g><path class="cls-1" d="M31.58,32.58l5.16-8.93c.32-.55,.91-.89,1.54-.89h5.34c1.37,0,2.23,1.48,1.54,2.67l-8.85,15.33c-.32,.55-.91,.89-1.54,.89H17.06c-1.37,0-2.23-1.48-1.54-2.67l2.67-4.62c.32-.55,.91-.89,1.54-.89h10.31c.64,0,1.22-.34,1.54-.89ZM9.69,19.93l5.16-8.93c.32-.55,.32-1.23,0-1.78l-2.67-4.62c-.68-1.19-2.4-1.19-3.08,0L.24,19.93c-.32,.55-.32,1.23,0,1.78l8.85,15.33c.68,1.19,2.4,1.19,3.08,0l2.67-4.62c.32-.55,.32-1.23,0-1.78l-5.16-8.93c-.32-.55-.32-1.23,0-1.78ZM15.52,2.67l2.67,4.62c.32,.55,.91,.89,1.54,.89h10.31c.64,0,1.22,.34,1.54,.89l5.16,8.93c.32,.55,.91,.89,1.54,.89h5.34c1.37,0,2.23-1.48,1.54-2.67L36.31,.89c-.32-.55-.91-.89-1.54-.89H17.06c-1.37,0-2.23,1.48-1.54,2.67Zm13.79,10.49c-.56-.98-1.85-1.28-2.8-.61-.82,.59-1.01,1.74-.51,2.61l2.15,3.72h-8.77l2.15-3.73c.51-.87,.31-2.03-.51-2.61-.94-.67-2.23-.37-2.79,.61l-3.81,6.6c-.38,.65-.38,1.46,0,2.12l3.81,6.6c.36,.62,1.01,.97,1.67,.97,.4,0,.8-.12,1.15-.38,.8-.59,.98-1.72,.48-2.58l-2.16-3.74h8.77l-2.16,3.74c-.5,.86-.32,1.98,.48,2.58,.35,.26,.76,.38,1.15,.38,.67,0,1.32-.35,1.67-.97l3.81-6.6c.38-.65,.38-1.46,0-2.12l-3.81-6.6Z"/></g></g></svg>