<svg xmlns="http://www.w3.org/2000/svg" xmlns:xlink="http://www.w3.org/1999/xlink" id="Camada_1" x="0px" y="0px" viewBox="0 0 141.7 141.7" style="enable-background:new 0 0 141.7 141.7;" xml:space="preserve">
<style type="text/css">
	.st0{fill:#FF6900;}
</style>
<g>
	<g>
		<g>
			<path class="st0" d="M99.9,57.7H77v-6.1h22.9c2.2,0,3.9-1.8,3.9-3.9c0-2.2-1.8-3.9-3.9-3.9H84.1c-5.5,0-10.1-4.5-10.1-10.1     c0-5.5,4.5-10.1,10.1-10.1h22.9v6.1H84.1c-2.2,0-3.9,1.8-3.9,3.9c0,2.2,1.8,3.9,3.9,3.9h15.8c5.5,0,10.1,4.5,10.1,10.1     C109.9,53.2,105.4,57.7,99.9,57.7z"></path>
		</g>
		<g>
			<rect x="88.9" y="17.2" class="st0" width="6.1" height="9.4"></rect>
		</g>
		<g>
			<rect x="88.9" y="54.7" class="st0" width="6.1" height="9.4"></rect>
		</g>
	</g>
	<g>
		<g>
			<path class="st0" d="M32.1,134.6c-1.3,0-2.6-0.2-3.9-0.7c-2.9-1-5.3-3.2-6.6-6l-9.9-20.8c-1.3-2.8-1.5-6-0.5-8.9     c1-2.9,3.2-5.3,6-6.6l9.3-4.4c5.8-2.8,12.7-0.3,15.5,5.5l9.9,20.8c1.3,2.8,1.5,6,0.5,8.9c-1,2.9-3.2,5.3-6,6.6l-9.3,4.4     C35.5,134.2,33.8,134.6,32.1,134.6z M31.5,96.3c-0.2,0-0.4,0-0.6,0.1l-9.3,4.4c-0.4,0.2-0.6,0.6-0.7,0.8     c-0.1,0.3-0.2,0.6,0.1,1.1l9.9,20.8c0.2,0.4,0.6,0.6,0.8,0.7c0.3,0.1,0.6,0.1,1.1-0.1l9.3-4.4c0.4-0.2,0.6-0.6,0.7-0.8     c0.1-0.3,0.2-0.6-0.1-1.1l-9.9-20.8C32.5,96.6,32,96.3,31.5,96.3z"></path>
		</g>
		<g>
			<path class="st0" d="M87.7,111.9c-1.3,0-2.6-0.2-3.9-0.7l-22.1-7.8l3.4-9.6l22.1,7.8c0.4,0.2,0.8,0.1,1.1-0.1     c0.2-0.1,0.5-0.3,0.7-0.8c0.3-0.7-0.1-1.5-0.8-1.8l-25.5-9c-1.2-0.4-2.4-0.4-3.6,0.2l-19.6,9.3l-4.4-9.2L54.7,81     c3.6-1.7,7.6-1.9,11.4-0.6l25.5,9c6,2.1,9.2,8.8,7,14.8c-1,2.9-3.1,5.3-5.9,6.6C91.1,111.5,89.4,111.9,87.7,111.9z"></path>
		</g>
		<g>
			<path class="st0" d="M86.9,128.4c-1.6,0-3.2-0.3-4.7-0.8l-25-8.9l-6.4,3.1l-4.4-9.2l6.5-3.1c2.4-1.2,5.2-1.3,7.7-0.4l25,8.9     c1,0.3,2,0.3,3-0.2l30.1-14.3c2-1,2.9-3.4,1.9-5.4c-1-2-3.4-2.9-5.4-1.9l-18.8,9L92,96l18.8-9c7.1-3.4,15.6-0.4,19,6.7     c3.4,7.1,0.4,15.6-6.7,19l-30.1,14.3C91,128,89,128.4,86.9,128.4z"></path>
		</g>
	</g>
	<g>
		<path class="st0" d="M92,74.2c-18.5,0-33.5-15-33.5-33.5S73.5,7.2,92,7.2s33.5,15,33.5,33.5S110.5,74.2,92,74.2z M92,13.3    c-15.1,0-27.4,12.3-27.4,27.4S76.8,68.1,92,68.1s27.4-12.3,27.4-27.4S107.1,13.3,92,13.3z"></path>
	</g>
</g>
</svg>