<svg xmlns="http://www.w3.org/2000/svg" xmlns:xlink="http://www.w3.org/1999/xlink" id="Camada_1" x="0px" y="0px" viewBox="0 0 141.7 141.7" style="enable-background:new 0 0 141.7 141.7;" xml:space="preserve">
<style type="text/css">
	.st0{fill:#FF6900;}
</style>
<g>
	<g>
		<g>
			<path class="st0" d="M70.9,126.5l-3.9-1.7C35.3,110.6,14.8,79,14.8,44.3c0-1.6,0-3.2,0.1-4.8l0.2-4.5l3.6-2.7     c15.2-11.1,33.2-17,52.1-17s36.9,5.9,52.1,17l3.6,2.7l0.2,4.5c0.1,1.6,0.1,3.2,0.1,4.8c0,34.7-20.5,66.3-52.2,80.5L70.9,126.5z      M25.1,40.3C25,41.6,25,43,25,44.3c0,30.6,18,58.5,45.9,71c27.9-12.6,45.9-40.4,45.9-71c0-1.3,0-2.6-0.1-4     c-13.4-9.7-29.2-14.9-45.8-14.9S38.5,30.6,25.1,40.3z"></path>
		</g>
	</g>
	<g>
		<polygon class="st0" points="65.3,87.7 49,69 56.6,62.3 65.8,72.8 85.3,53.3 92.5,60.5   "></polygon>
	</g>
</g>
</svg>