<svg xmlns="http://www.w3.org/2000/svg" xmlns:xlink="http://www.w3.org/1999/xlink" id="Camada_1" x="0px" y="0px" viewBox="0 0 141.7 141.7" style="enable-background:new 0 0 141.7 141.7;" xml:space="preserve">
<style type="text/css">
	.st0{fill:#FF6900;}
</style>
<g>
	<g>
		<path class="st0" d="M70.9,124.4c-29.5,0-53.5-24-53.5-53.5c0-29.5,24-53.5,53.5-53.5c29.5,0,53.5,24,53.5,53.5    C124.4,100.4,100.4,124.4,70.9,124.4z M70.9,27.6C47,27.6,27.6,47,27.6,70.9c0,23.9,19.4,43.3,43.3,43.3s43.3-19.4,43.3-43.3    C114.2,47,94.7,27.6,70.9,27.6z"></path>
	</g>
	<g>
		<polygon class="st0" points="104.6,77.8 67.8,77.8 67.8,47.7 73.9,47.7 73.9,71.6 104.6,71.6   "></polygon>
	</g>
</g>
</svg>