<svg xmlns="http://www.w3.org/2000/svg" xmlns:xlink="http://www.w3.org/1999/xlink" id="Camada_1" x="0px" y="0px" viewBox="0 0 900 900" style="enable-background:new 0 0 900 900;" xml:space="preserve">
<style type="text/css">
	.st0{fill:#101820;}
	.st1{fill:#FC4C02;}
	.st2{fill:#EDEDED;}
	.st3{fill:#7748D2;}
	.st4{fill:#8F8B90;}
	.st5{fill:#30B700;}
	.st6{fill:#00205B;}
	.st7{fill:#F2CD00;}
	.st8{fill:#00B5E2;}
	.st9{fill:#EE2737;}
</style>
<g>
	<g>
		<path class="st0" d="M579,616.4L466.5,340c-3.5-8.7-12-14.3-21.3-14.3h-96.6v17.4h20.3c7.7,0,13,7.8,10.2,15L278.5,616.4h26.9    l100.3-257.4l104.7,257.4H579z"></path>
		<circle class="st1" cx="579" cy="325.7" r="42.6"></circle>
	</g>
	<g>
		<g>
			<path class="st2" d="M138.3,470.7H25.9c-4.8,0-8.6,4-8.3,8.8c6.6,97.3,45.3,185.9,105.7,255.1c3.1,3.6,8.7,3.7,12.1,0.4     l79.5-79.5c3.1-3.1,3.2-7.9,0.5-11.2c-38.1-45.9-62.9-103.2-68.7-166C146.2,473.9,142.6,470.7,138.3,470.7z"></path>
			<path class="st2" d="M644.4,215c3.3,2.8,8.2,2.6,11.2-0.5l79.5-79.5v0c3.4-3.4,3.2-8.9-0.4-12.1     C665.6,62.6,577.1,23.9,479.8,17.3c-4.8-0.3-8.8,3.5-8.8,8.3V138c0,4.3,3.2,7.9,7.4,8.3C541.2,152.1,598.5,176.9,644.4,215z"></path>
			<path class="st2" d="M146.6,421.4c5.8-62.8,30.6-120.1,68.7-166c2.8-3.3,2.6-8.2-0.5-11.2l-79.5-79.5c-3.4-3.4-8.9-3.2-12.1,0.4     C62.9,234.1,24.2,322.7,17.6,420c-0.3,4.8,3.5,8.8,8.3,8.8h112.4C142.6,428.8,146.2,425.6,146.6,421.4z"></path>
			<path class="st2" d="M753.5,478.1c-5.8,62.8-30.6,120.1-68.7,166c-2.8,3.3-2.6,8.2,0.5,11.2l79.5,79.5c3.4,3.4,8.9,3.2,12.1-0.4     c60.3-69.2,99.1-157.7,105.7-255.1c0.3-4.8-3.5-8.8-8.3-8.8H761.8C757.5,470.7,753.9,473.9,753.5,478.1z"></path>
			<path class="st2" d="M684.8,255.3c38.1,45.9,62.9,103.2,68.7,166c0.4,4.2,4,7.4,8.3,7.4h112.4c4.8,0,8.6-4,8.3-8.8     c-6.6-97.3-45.3-185.9-105.7-255.1c-3.1-3.6-8.7-3.7-12.1-0.4l-79.5,79.5C682.2,247.2,682.1,252,684.8,255.3z"></path>
			<path class="st2" d="M735.2,764.5L655.7,685c-3.1-3.1-7.9-3.2-11.2-0.5c-45.9,38.1-103.2,62.9-166,68.7c-4.2,0.4-7.4,4-7.4,8.3     v112.4c0,4.8,4,8.6,8.8,8.3c97.4-6.6,185.9-45.3,255.1-105.7C738.4,773.4,738.6,767.8,735.2,764.5L735.2,764.5z"></path>
			<path class="st2" d="M244.4,685l-79.5,79.5c-3.4,3.4-3.2,8.9,0.4,12.1c69.2,60.3,157.7,99.1,255.1,105.7c4.8,0.3,8.8-3.5,8.8-8.3     V761.5c0-4.3-3.2-7.9-7.4-8.3c-62.8-5.8-120.1-30.6-166-68.7C252.3,681.8,247.5,681.9,244.4,685z"></path>
			<path class="st2" d="M255.6,215c45.9-38.1,103.2-62.9,166-68.7c4.2-0.4,7.4-4,7.4-8.3V25.6c0-4.8-4-8.6-8.8-8.3     C323,23.9,234.4,62.6,165.3,122.9c-3.6,3.1-3.7,8.7-0.4,12.1l79.5,79.5C247.5,217.6,252.3,217.7,255.6,215z"></path>
		</g>
		<g>
			<g>
				<g>
					<path class="st0" d="M65.9,360c0-0.2,0.1-0.3,0.3-0.4l1.6-0.9c0.7,0.9,1.2,1.9,1.4,3c0.2,1.1,0.2,2.4-0.1,3.8       c-0.3,1.3-0.7,2.3-1.4,3.2c-0.6,0.9-1.4,1.6-2.3,2.2c-0.9,0.5-1.9,0.9-3.1,1c-1.1,0.1-2.3,0.1-3.6-0.2       c-1.3-0.3-2.4-0.7-3.3-1.4c-1-0.7-1.7-1.4-2.3-2.4c-0.6-0.9-1-2-1.2-3.1c-0.2-1.2-0.1-2.4,0.1-3.7c0.3-1.3,0.7-2.3,1.3-3.2       c0.6-0.9,1.3-1.5,2.1-2.1l1.2,1.4c0.1,0.1,0.1,0.2,0.2,0.3c0,0.1,0.1,0.3,0,0.4c0,0.2-0.1,0.3-0.3,0.5       c-0.2,0.2-0.4,0.4-0.6,0.6c-0.2,0.3-0.5,0.6-0.7,1c-0.2,0.4-0.4,1-0.6,1.6c-0.2,0.8-0.2,1.6-0.1,2.3c0.1,0.7,0.4,1.4,0.8,2       c0.4,0.6,1,1.1,1.6,1.5c0.7,0.4,1.5,0.7,2.4,0.9c1,0.2,1.8,0.3,2.6,0.1c0.8-0.1,1.5-0.3,2.1-0.7c0.6-0.3,1.1-0.8,1.5-1.4       c0.4-0.6,0.7-1.2,0.8-1.9c0.1-0.4,0.2-0.8,0.2-1.2c0-0.4,0-0.7,0-1c0-0.3-0.1-0.6-0.2-0.9c-0.1-0.3-0.2-0.6-0.4-0.9       c-0.1-0.1-0.1-0.2-0.1-0.3C65.9,360.2,65.9,360.1,65.9,360z"></path>
					<path class="st0" d="M66.7,338.7c1.2,0.3,2.3,0.8,3.2,1.5c0.9,0.7,1.7,1.5,2.3,2.4s0.9,2,1.1,3.1c0.2,1.2,0.1,2.4-0.3,3.6       c-0.3,1.3-0.9,2.4-1.6,3.3c-0.7,0.9-1.5,1.7-2.5,2.2c-1,0.5-2,0.9-3.2,1c-1.2,0.1-2.3,0-3.6-0.3c-1.2-0.3-2.3-0.8-3.2-1.5       c-0.9-0.7-1.7-1.5-2.2-2.4c-0.6-0.9-0.9-2-1.1-3.2c-0.2-1.2-0.1-2.4,0.3-3.6c0.3-1.3,0.9-2.4,1.6-3.3c0.7-0.9,1.5-1.7,2.5-2.2       c1-0.5,2-0.9,3.2-1C64.3,338.3,65.5,338.4,66.7,338.7z M65.9,341.9c-0.9-0.2-1.8-0.3-2.6-0.3c-0.8,0-1.5,0.2-2.1,0.6       c-0.6,0.3-1.2,0.8-1.6,1.4c-0.4,0.6-0.8,1.3-1,2.1c-0.2,0.8-0.3,1.6-0.2,2.3c0.1,0.7,0.3,1.4,0.7,2c0.4,0.6,0.9,1.1,1.6,1.5       c0.7,0.4,1.5,0.8,2.4,1c0.9,0.2,1.8,0.3,2.6,0.3c0.8-0.1,1.5-0.2,2.1-0.6c0.6-0.3,1.2-0.8,1.6-1.4s0.8-1.3,1-2.1       s0.3-1.6,0.2-2.3c-0.1-0.7-0.3-1.4-0.7-2c-0.4-0.6-0.9-1.1-1.6-1.5C67.6,342.5,66.8,342.1,65.9,341.9z"></path>
					<path class="st0" d="M59.9,331.6c0-0.1,0.1-0.2,0.1-0.2c0.1-0.1,0.1-0.1,0.2-0.2c0.1-0.1,0.2-0.1,0.3-0.2l13.8-5.2       c-0.3-0.1-0.5-0.1-0.8-0.2c-0.3-0.1-0.5-0.1-0.7-0.2l-10-3.2l0.9-2.7l16.5,5.2l-0.5,1.6c-0.1,0.2-0.2,0.4-0.3,0.6       c-0.1,0.1-0.3,0.2-0.6,0.3l-13.7,5.1c0.3,0.1,0.5,0.1,0.7,0.2c0.2,0.1,0.5,0.1,0.7,0.2l10.1,3.2l-0.9,2.7l-16.5-5.2l0.5-1.6       C59.8,331.8,59.8,331.7,59.9,331.6z"></path>
					<path class="st0" d="M71.1,308.2c0.1,0.1,0.2,0.3,0.2,0.4c0,0.1,0,0.3,0,0.4c-0.1,0.1-0.2,0.3-0.4,0.4       c-0.2,0.1-0.4,0.3-0.6,0.5c-0.2,0.2-0.5,0.5-0.7,0.8c-0.2,0.3-0.4,0.7-0.6,1.1c-0.2,0.4-0.2,0.8-0.2,1.2c0,0.3,0,0.7,0.1,0.9       c0.1,0.3,0.3,0.5,0.5,0.7c0.2,0.2,0.5,0.3,0.8,0.5c0.4,0.1,0.7,0.1,1.1,0c0.3-0.1,0.7-0.3,1-0.6c0.3-0.3,0.6-0.6,0.9-1       c0.3-0.4,0.6-0.8,1-1.2c0.3-0.4,0.7-0.8,1.1-1.2c0.4-0.4,0.8-0.7,1.2-0.9c0.5-0.2,1-0.4,1.5-0.4c0.5,0,1.2,0.1,1.8,0.3       c0.7,0.3,1.4,0.6,1.9,1.1c0.6,0.5,1,1.1,1.3,1.7c0.3,0.7,0.5,1.4,0.5,2.2c0,0.8-0.1,1.6-0.5,2.5c-0.2,0.5-0.4,1-0.7,1.5       c-0.3,0.5-0.6,0.9-1,1.3c-0.4,0.4-0.7,0.7-1.1,1.1c-0.4,0.3-0.8,0.6-1.3,0.8l-1.1-1.4c-0.1-0.1-0.1-0.3-0.2-0.4       c0-0.1,0-0.3,0-0.4c0.1-0.2,0.2-0.4,0.4-0.5c0.2-0.2,0.5-0.4,0.8-0.6c0.3-0.2,0.6-0.5,0.9-0.9c0.3-0.3,0.5-0.8,0.8-1.4       c0.3-0.9,0.3-1.6,0.1-2.2c-0.2-0.6-0.7-1.1-1.5-1.3c-0.4-0.2-0.8-0.2-1.2-0.1c-0.4,0.1-0.7,0.3-1,0.6c-0.3,0.3-0.6,0.6-0.9,1       c-0.3,0.4-0.6,0.8-0.9,1.2c-0.3,0.4-0.7,0.8-1,1.2c-0.4,0.4-0.8,0.7-1.3,0.9c-0.5,0.2-1,0.4-1.6,0.4c-0.6,0-1.2-0.1-2-0.4       c-0.6-0.2-1.1-0.5-1.6-1c-0.5-0.4-0.8-1-1.1-1.6c-0.3-0.6-0.4-1.3-0.4-2c0-0.8,0.1-1.6,0.4-2.4c0.3-1,0.8-1.8,1.4-2.5       c0.6-0.7,1.3-1.2,2-1.6L71.1,308.2z"></path>
					<path class="st0" d="M85.8,302.3c0.2-0.6,0.3-1.1,0.3-1.7c0-0.5-0.1-1-0.3-1.5c-0.2-0.5-0.5-0.9-1-1.2       c-0.4-0.4-0.9-0.7-1.6-0.9l-9.6-3.9l1.2-3l9.6,3.9c1,0.4,1.8,0.9,2.5,1.5c0.7,0.6,1.2,1.4,1.6,2.2c0.4,0.8,0.5,1.7,0.5,2.7       c0,1-0.2,1.9-0.6,3c-0.4,1-1,1.9-1.6,2.6c-0.7,0.7-1.4,1.2-2.2,1.5c-0.8,0.3-1.7,0.5-2.6,0.5c-0.9,0-1.9-0.2-2.8-0.6l-9.6-3.9       l1.2-3l9.6,3.9c0.6,0.2,1.2,0.4,1.8,0.4c0.6,0,1.1,0,1.6-0.2c0.5-0.2,0.9-0.4,1.3-0.8C85.3,303.4,85.6,302.9,85.8,302.3z"></path>
					<path class="st0" d="M91.1,289.8l2.8-6.3l2.4,1.1l-4.2,9.2l-15.8-7.1l1.3-2.9L91.1,289.8z"></path>
					<path class="st0" d="M86.1,266.1l2.4,1.2l-2.3,4.7l13.2,6.4l-1.4,2.9l-13.2-6.4l-2.3,4.7l-2.4-1.2L86.1,266.1z"></path>
					<path class="st0" d="M102.3,254.1c1.1,0.6,2.1,1.3,2.8,2.2c0.8,0.9,1.3,1.8,1.6,2.9c0.3,1,0.4,2.1,0.3,3.3       c-0.1,1.2-0.5,2.3-1.1,3.5c-0.6,1.2-1.4,2.1-2.3,2.8c-0.9,0.7-1.9,1.3-2.9,1.6s-2.2,0.4-3.3,0.3c-1.2-0.1-2.3-0.5-3.4-1.1       c-1.1-0.6-2-1.3-2.8-2.2c-0.8-0.9-1.3-1.8-1.6-2.9c-0.3-1-0.4-2.2-0.3-3.3c0.1-1.2,0.5-2.3,1.1-3.5c0.6-1.2,1.4-2.1,2.3-2.8       c0.9-0.7,1.9-1.3,2.9-1.6c1.1-0.3,2.2-0.4,3.3-0.2C100,253.1,101.1,253.5,102.3,254.1z M100.7,257c-0.8-0.4-1.6-0.7-2.4-0.9       s-1.5-0.1-2.2,0c-0.7,0.2-1.3,0.5-1.9,0.9c-0.6,0.5-1,1.1-1.4,1.8c-0.4,0.7-0.6,1.5-0.7,2.2c-0.1,0.7,0,1.4,0.2,2.1       c0.2,0.7,0.6,1.3,1.2,1.9c0.5,0.6,1.2,1.1,2.1,1.5c0.8,0.4,1.6,0.7,2.4,0.9c0.8,0.1,1.5,0.1,2.2-0.1c0.7-0.2,1.3-0.5,1.9-1       c0.6-0.5,1-1.1,1.4-1.8c0.4-0.7,0.6-1.5,0.7-2.2c0.1-0.7,0-1.4-0.3-2.1c-0.2-0.7-0.6-1.3-1.2-1.9       C102.2,258,101.5,257.5,100.7,257z"></path>
					<path class="st0" d="M107,249.8l5.8,3.4l-1.6,2.8l-14.9-8.8l2.7-4.5c0.6-1,1.2-1.8,1.9-2.4c0.6-0.6,1.3-1,1.9-1.3       c0.6-0.2,1.3-0.3,2-0.2c0.7,0.1,1.3,0.3,1.9,0.7c0.5,0.3,0.9,0.7,1.3,1.1c0.4,0.4,0.6,0.9,0.8,1.4c0.2,0.5,0.3,1,0.3,1.6       c0,0.6,0,1.2-0.2,1.8c0.4-0.2,0.9-0.4,1.4-0.4l7.7-0.5l-1.5,2.5c-0.1,0.2-0.3,0.4-0.5,0.5c-0.2,0.1-0.4,0.2-0.7,0.2l-6.6,0.3       c-0.2,0-0.4,0.1-0.6,0.2c-0.2,0.1-0.3,0.3-0.5,0.6L107,249.8z M105,248.7l1-1.7c0.3-0.5,0.5-1,0.6-1.5c0.1-0.5,0.1-0.9,0-1.3       c-0.1-0.4-0.2-0.7-0.5-1c-0.2-0.3-0.6-0.6-0.9-0.8c-0.8-0.4-1.5-0.5-2.2-0.3c-0.7,0.3-1.4,0.9-2,1.9l-1.1,1.8L105,248.7z"></path>
					<path class="st0" d="M121,239.8l-1.7,2.7l-14.6-9.3l1.7-2.7L121,239.8z"></path>
					<path class="st0" d="M131.6,224l-1.4,2.1c-0.2,0.2-0.3,0.4-0.6,0.5s-0.4,0.1-0.6,0l-3.6-0.9l-4,5.9l2.2,3       c0.1,0.2,0.2,0.4,0.2,0.6s0,0.5-0.2,0.7l-1.4,2.1l-10.5-15.3l1.8-2.7L131.6,224z M119.9,229.6l3.1-4.6l-5.9-1.5       c-0.3-0.1-0.6-0.1-0.9-0.2c-0.4-0.1-0.7-0.2-1.1-0.4c0.3,0.3,0.5,0.6,0.8,0.9c0.2,0.3,0.4,0.5,0.6,0.8L119.9,229.6z"></path>
					<path class="st0" d="M130.7,222.3c-0.2-0.1-0.3-0.3-0.4-0.5c-0.1-0.2-0.2-0.4-0.2-0.6c0-0.2,0-0.4,0-0.7       c0.1-0.2,0.2-0.4,0.3-0.6c0.2-0.2,0.4-0.4,0.6-0.5c0.2-0.1,0.4-0.2,0.7-0.2c0.2,0,0.5,0,0.7,0.1c0.2,0.1,0.5,0.2,0.7,0.4       c0.3,0.2,0.6,0.5,0.9,0.8c0.3,0.3,0.5,0.7,0.7,1.2c0.2,0.4,0.4,0.9,0.5,1.4c0.1,0.5,0.2,1,0.2,1.6l-0.7,0.1       c-0.2,0-0.3,0-0.5-0.1c-0.1,0-0.1-0.1-0.1-0.2c0-0.1-0.1-0.2-0.1-0.3c0-0.1-0.1-0.3-0.1-0.5c0-0.2-0.1-0.4-0.2-0.6       c-0.1-0.2-0.2-0.4-0.3-0.6c-0.1-0.2-0.2-0.4-0.4-0.6c-0.1,0.2-0.3,0.4-0.5,0.5c-0.2,0.1-0.4,0.2-0.6,0.2c-0.2,0-0.4,0-0.7,0       C131.1,222.6,130.9,222.5,130.7,222.3z"></path>
				</g>
				<g>
					<g>
						<path class="st0" d="M98.1,371l-0.7,3.2l-17-3.7l0.7-3.2L98.1,371z"></path>
						<path class="st0" d="M94.9,356.9c0.3,0,0.6-0.1,0.9-0.1c-0.3-0.2-0.5-0.4-0.7-0.6c-0.2-0.2-0.5-0.4-0.7-0.6l-8-7.4        c-0.1-0.1-0.2-0.2-0.2-0.3c-0.1-0.1-0.1-0.2-0.1-0.3c0-0.1,0-0.2,0-0.3c0-0.1,0-0.2,0.1-0.4l0.6-2.4l16.9,4.4l-0.7,2.8L92,349        c-0.2-0.1-0.4-0.1-0.7-0.2c-0.2-0.1-0.5-0.2-0.7-0.2l8.2,7.6c0.2,0.2,0.3,0.4,0.4,0.6c0.1,0.2,0.1,0.5,0,0.7l-0.1,0.4        c-0.1,0.2-0.2,0.4-0.4,0.6c-0.2,0.2-0.4,0.3-0.6,0.3l-10.9,2.7c0.3,0,0.5,0.1,0.8,0.1c0.3,0.1,0.5,0.1,0.7,0.2l10.9,2.9        l-0.7,2.8L82,362.9l0.6-2.4c0-0.1,0.1-0.3,0.1-0.4c0-0.1,0.1-0.2,0.1-0.3c0.1-0.1,0.1-0.1,0.2-0.2c0.1-0.1,0.2-0.1,0.3-0.1        l10.7-2.6C94.3,357,94.6,356.9,94.9,356.9z"></path>
						<path class="st0" d="M99.8,340.9l5.8,1.9l-1,3.1L88,340.6l1.7-5.4c0.4-1.1,0.8-2,1.3-2.8c0.5-0.7,1.1-1.3,1.7-1.7        c0.6-0.4,1.3-0.6,2-0.6c0.7,0,1.5,0.1,2.3,0.3c0.8,0.3,1.5,0.6,2.1,1.1c0.6,0.5,1,1.1,1.3,1.8c0.3,0.7,0.5,1.5,0.5,2.4        c0,0.9-0.1,1.9-0.5,3L99.8,340.9z M97.4,340.1l0.7-2.3c0.2-0.6,0.3-1.1,0.3-1.5c0-0.5-0.1-0.9-0.3-1.2        c-0.2-0.4-0.4-0.7-0.8-0.9c-0.3-0.3-0.7-0.5-1.2-0.6c-0.4-0.1-0.9-0.2-1.3-0.2c-0.4,0-0.8,0.1-1.1,0.3        c-0.3,0.2-0.6,0.5-0.9,0.9c-0.3,0.4-0.5,0.9-0.7,1.4l-0.7,2.3L97.4,340.1z"></path>
						<path class="st0" d="M106.8,313c1.2,0.4,2.2,1.1,3.1,1.8c0.9,0.8,1.5,1.7,2,2.7c0.5,1,0.7,2.1,0.8,3.3c0,1.2-0.2,2.4-0.6,3.6        c-0.5,1.2-1.1,2.3-1.9,3.2c-0.8,0.9-1.7,1.5-2.7,2c-1,0.5-2.1,0.7-3.3,0.7c-1.2,0-2.4-0.2-3.5-0.6c-1.2-0.4-2.2-1.1-3.1-1.8        c-0.9-0.8-1.5-1.7-2-2.7c-0.5-1-0.7-2.1-0.8-3.3c0-1.2,0.2-2.4,0.6-3.6c0.5-1.2,1.1-2.3,1.9-3.1c0.8-0.9,1.7-1.5,2.7-2        c1-0.4,2.1-0.7,3.3-0.7C104.4,312.4,105.6,312.6,106.8,313z M105.6,316.2c-0.9-0.3-1.7-0.5-2.5-0.5c-0.8,0-1.5,0.1-2.2,0.4        c-0.7,0.3-1.2,0.7-1.7,1.2c-0.5,0.5-0.9,1.2-1.2,2c-0.3,0.8-0.4,1.6-0.4,2.3c0,0.7,0.2,1.4,0.5,2.1c0.3,0.6,0.8,1.2,1.4,1.7        c0.6,0.5,1.4,0.9,2.3,1.3c0.9,0.3,1.7,0.5,2.5,0.5c0.8,0,1.5-0.1,2.2-0.4c0.7-0.3,1.2-0.7,1.7-1.2c0.5-0.5,0.9-1.2,1.2-2        c0.3-0.8,0.4-1.6,0.4-2.3c0-0.7-0.2-1.4-0.5-2c-0.3-0.6-0.8-1.2-1.4-1.7C107.3,316.9,106.5,316.5,105.6,316.2z"></path>
						<path class="st0" d="M106.4,299.8c0.1,0.1,0.2,0.3,0.2,0.4c0,0.1,0,0.3-0.1,0.4c-0.1,0.1-0.2,0.3-0.4,0.4        c-0.2,0.1-0.4,0.3-0.7,0.5c-0.2,0.2-0.5,0.4-0.8,0.7c-0.3,0.3-0.5,0.7-0.7,1.1c-0.2,0.4-0.3,0.8-0.3,1.1c0,0.3,0,0.7,0.1,1        c0.1,0.3,0.2,0.5,0.4,0.7c0.2,0.2,0.5,0.4,0.7,0.5c0.4,0.2,0.7,0.2,1.1,0.1c0.3-0.1,0.7-0.3,1-0.6c0.3-0.3,0.6-0.6,1-1        c0.3-0.4,0.7-0.8,1-1.2c0.4-0.4,0.7-0.8,1.1-1.1c0.4-0.4,0.8-0.6,1.3-0.8c0.5-0.2,1-0.3,1.5-0.3c0.6,0,1.2,0.1,1.8,0.4        c0.7,0.3,1.4,0.7,1.9,1.2c0.5,0.5,0.9,1.1,1.2,1.8c0.3,0.7,0.4,1.4,0.4,2.2c0,0.8-0.2,1.6-0.6,2.5c-0.2,0.5-0.5,1-0.8,1.4        c-0.3,0.5-0.7,0.9-1,1.2c-0.4,0.4-0.8,0.7-1.2,1c-0.4,0.3-0.9,0.5-1.3,0.7l-1.1-1.5c-0.1-0.1-0.1-0.3-0.1-0.4        c0-0.1,0-0.3,0.1-0.4c0.1-0.2,0.2-0.4,0.5-0.5c0.2-0.1,0.5-0.3,0.8-0.5c0.3-0.2,0.6-0.5,0.9-0.8c0.3-0.3,0.6-0.8,0.8-1.3        c0.4-0.9,0.4-1.6,0.2-2.2c-0.2-0.6-0.7-1.1-1.4-1.4c-0.4-0.2-0.8-0.2-1.2-0.1c-0.4,0.1-0.7,0.3-1,0.6c-0.3,0.3-0.6,0.6-1,1        c-0.3,0.4-0.6,0.8-1,1.2c-0.3,0.4-0.7,0.8-1.1,1.1c-0.4,0.4-0.8,0.6-1.3,0.8c-0.5,0.2-1,0.3-1.6,0.3c-0.6,0-1.2-0.2-2-0.5        c-0.6-0.2-1.1-0.6-1.6-1.1c-0.5-0.5-0.8-1-1-1.6c-0.2-0.6-0.4-1.3-0.3-2.1c0-0.8,0.2-1.6,0.6-2.4c0.4-0.9,0.9-1.8,1.5-2.4        c0.6-0.7,1.3-1.2,2.1-1.5L106.4,299.8z"></path>
						<path class="st0" d="M110.4,283.7l2.4,1.1l-2.2,4.7l13.4,6.3l-1.4,2.9l-13.4-6.3l-2.2,4.8l-2.4-1.1L110.4,283.7z"></path>
						<path class="st0" d="M126.5,271.4c1.1,0.6,2.1,1.3,2.8,2.2c0.8,0.9,1.3,1.8,1.7,2.9c0.3,1.1,0.5,2.2,0.4,3.3        c-0.1,1.2-0.5,2.3-1.1,3.5c-0.6,1.2-1.4,2.1-2.3,2.9c-0.9,0.8-1.9,1.3-2.9,1.6c-1.1,0.3-2.2,0.4-3.3,0.3        c-1.2-0.1-2.3-0.5-3.4-1.1c-1.1-0.6-2.1-1.3-2.8-2.2c-0.8-0.9-1.3-1.8-1.7-2.9c-0.3-1.1-0.5-2.2-0.4-3.3        c0.1-1.2,0.5-2.3,1.1-3.5c0.6-1.2,1.4-2.1,2.3-2.9c0.9-0.8,1.9-1.3,2.9-1.6c1.1-0.3,2.2-0.4,3.3-0.3        C124.3,270.4,125.4,270.8,126.5,271.4z M125,274.3c-0.8-0.4-1.7-0.7-2.5-0.9c-0.8-0.1-1.5-0.1-2.2,0.1s-1.3,0.5-1.9,1        c-0.6,0.5-1,1.1-1.4,1.8c-0.4,0.8-0.6,1.5-0.7,2.2c-0.1,0.7,0,1.4,0.3,2.1c0.3,0.7,0.7,1.3,1.2,1.9c0.6,0.6,1.3,1.1,2.1,1.5        c0.8,0.4,1.7,0.7,2.5,0.8c0.8,0.1,1.5,0.1,2.2-0.1c0.7-0.2,1.3-0.5,1.9-1c0.6-0.5,1-1.1,1.4-1.8c0.4-0.8,0.6-1.5,0.7-2.2        c0.1-0.7,0-1.4-0.3-2.1c-0.2-0.7-0.6-1.3-1.2-1.9C126.6,275.3,125.9,274.7,125,274.3z"></path>
						<path class="st0" d="M127.8,258.1c0.1,0.2,0.2,0.3,0.2,0.5c0,0.1,0,0.3-0.1,0.4c-0.1,0.1-0.2,0.3-0.4,0.4        c-0.2,0.1-0.4,0.2-0.7,0.4c-0.3,0.2-0.5,0.4-0.8,0.6c-0.3,0.3-0.6,0.6-0.8,1c-0.2,0.4-0.4,0.8-0.4,1.1c-0.1,0.3-0.1,0.7,0,1        c0.1,0.3,0.2,0.6,0.3,0.8c0.2,0.2,0.4,0.4,0.7,0.6c0.4,0.2,0.7,0.3,1.1,0.2c0.4-0.1,0.7-0.2,1.1-0.4c0.4-0.2,0.7-0.5,1.1-0.9        c0.4-0.3,0.8-0.7,1.2-1c0.4-0.3,0.8-0.7,1.3-1s0.9-0.5,1.4-0.7c0.5-0.2,1-0.2,1.6-0.1c0.6,0.1,1.1,0.3,1.8,0.6        c0.7,0.4,1.3,0.9,1.7,1.5c0.5,0.6,0.8,1.2,1,1.9c0.2,0.7,0.2,1.5,0.1,2.2c-0.1,0.8-0.4,1.6-0.9,2.4c-0.3,0.5-0.6,0.9-1,1.3        c-0.4,0.4-0.8,0.8-1.2,1.1c-0.4,0.3-0.9,0.6-1.3,0.8c-0.5,0.2-0.9,0.4-1.4,0.5l-0.9-1.6c-0.1-0.1-0.1-0.3-0.1-0.4        c0-0.1,0-0.3,0.1-0.4c0.1-0.2,0.3-0.3,0.5-0.4c0.3-0.1,0.6-0.3,0.9-0.4c0.3-0.2,0.7-0.4,1-0.7c0.4-0.3,0.7-0.7,1-1.2        c0.5-0.8,0.6-1.5,0.5-2.2c-0.1-0.7-0.5-1.2-1.3-1.6c-0.4-0.2-0.8-0.3-1.1-0.3c-0.4,0.1-0.7,0.2-1.1,0.4        c-0.4,0.2-0.7,0.5-1.1,0.9c-0.4,0.3-0.7,0.7-1.1,1c-0.4,0.4-0.8,0.7-1.2,1c-0.4,0.3-0.9,0.5-1.4,0.7c-0.5,0.1-1,0.2-1.6,0.1        c-0.6-0.1-1.2-0.3-1.9-0.7c-0.5-0.3-1-0.7-1.4-1.3c-0.4-0.5-0.7-1.1-0.8-1.8c-0.2-0.7-0.2-1.4-0.1-2.1        c0.1-0.8,0.4-1.5,0.8-2.3c0.5-0.9,1.1-1.6,1.8-2.2c0.7-0.6,1.5-1,2.3-1.2L127.8,258.1z"></path>
						<path class="st0" d="M135.7,239.7l2.2,1.4l-4.2,6.5l4.1,2.6l3.3-5.1l2.1,1.4l-3.3,5.1l4.1,2.7l4.2-6.5l2.2,1.4l-6,9.2        l-14.6-9.5L135.7,239.7z"></path>
					</g>
				</g>
				<g>
					<g>
						<path class="st0" d="M131.5,366.3l-0.6,2.4c-0.1,0.3-0.2,0.5-0.4,0.6c-0.2,0.1-0.4,0.2-0.6,0.3l-3.7,0.5l-1.6,7l3.1,2.1        c0.2,0.1,0.3,0.3,0.4,0.5c0.1,0.2,0.1,0.5,0.1,0.7l-0.6,2.4l-15.3-10.6l0.7-3.2L131.5,366.3z M122.6,375.7l1.3-5.4l-6.1,0.7        c-0.3,0-0.6,0.1-1,0.1c-0.4,0-0.8,0.1-1.2,0.1c0.4,0.2,0.7,0.4,1,0.6c0.3,0.2,0.6,0.4,0.8,0.5L122.6,375.7z"></path>
						<path class="st0" d="M131.2,357.9c0.2-0.6,0.2-1.2,0.2-1.7c-0.1-0.5-0.2-1-0.5-1.4c-0.3-0.4-0.6-0.8-1.1-1.1        c-0.5-0.3-1-0.6-1.6-0.8l-10-2.9l0.9-3.1l10,2.9c1,0.3,1.9,0.7,2.6,1.3c0.7,0.6,1.3,1.2,1.8,2c0.4,0.8,0.7,1.6,0.8,2.6        c0.1,0.9,0,2-0.3,3c-0.3,1.1-0.8,2-1.3,2.7c-0.6,0.8-1.3,1.3-2,1.8c-0.8,0.4-1.6,0.7-2.6,0.7c-0.9,0.1-1.9,0-2.9-0.3l-10-2.9        l0.9-3.1l9.9,2.9c0.6,0.2,1.2,0.3,1.8,0.2c0.6,0,1.1-0.1,1.5-0.4c0.5-0.2,0.9-0.5,1.2-0.9C130.8,359,131,358.5,131.2,357.9z"></path>
						<path class="st0" d="M133.4,331.5c1.2,0.4,2.2,1,3.1,1.7c0.9,0.7,1.5,1.6,2,2.6c0.5,1,0.7,2,0.8,3.2c0,1.2-0.1,2.4-0.6,3.6        l-2.2,6.2l-16.3-5.7l2.2-6.2c0.4-1.2,1-2.3,1.8-3.2c0.8-0.9,1.6-1.6,2.6-2c1-0.5,2-0.7,3.2-0.8        C131.1,330.9,132.2,331.1,133.4,331.5z M132.4,334.6c-0.9-0.3-1.7-0.5-2.5-0.5c-0.8,0-1.5,0.1-2.2,0.4        c-0.6,0.3-1.2,0.7-1.7,1.2c-0.5,0.5-0.9,1.2-1.1,2l-1.1,3.2l11.5,4l1.1-3.2c0.3-0.8,0.4-1.6,0.4-2.3c0-0.7-0.2-1.4-0.6-2        c-0.3-0.6-0.8-1.2-1.5-1.7C134,335.4,133.3,335,132.4,334.6z"></path>
						<path class="st0" d="M143.8,328.8l-1.2,3l-16.1-6.3l1.2-3L143.8,328.8z"></path>
						<path class="st0" d="M134.1,307.3l2.4,1l-2,4.8l13.5,5.8l-1.3,3l-13.5-5.8l-2.1,4.8l-2.4-1L134.1,307.3z"></path>
						<path class="st0" d="M149.8,294.6c1.1,0.6,2.1,1.3,2.9,2.1c0.8,0.9,1.4,1.8,1.7,2.8c0.4,1,0.5,2.1,0.5,3.3        c-0.1,1.2-0.4,2.3-1,3.5c-0.6,1.2-1.3,2.2-2.2,2.9c-0.9,0.8-1.8,1.3-2.9,1.7c-1,0.3-2.1,0.5-3.3,0.4c-1.2-0.1-2.3-0.4-3.4-1        c-1.1-0.6-2.1-1.3-2.9-2.1c-0.8-0.9-1.4-1.8-1.7-2.8c-0.4-1-0.5-2.1-0.4-3.3c0.1-1.2,0.4-2.3,1-3.5c0.6-1.2,1.3-2.1,2.2-2.9        c0.9-0.8,1.8-1.3,2.9-1.7c1-0.3,2.1-0.5,3.3-0.4C147.5,293.7,148.7,294,149.8,294.6z M148.4,297.5c-0.9-0.4-1.7-0.7-2.5-0.8        c-0.8-0.1-1.5-0.1-2.2,0.1c-0.7,0.2-1.3,0.5-1.8,1c-0.5,0.5-1,1.1-1.4,1.9c-0.4,0.8-0.6,1.5-0.6,2.2c0,0.7,0.1,1.4,0.3,2.1        s0.7,1.3,1.2,1.8c0.6,0.6,1.3,1,2.1,1.5c0.9,0.4,1.7,0.7,2.5,0.8c0.8,0.1,1.5,0.1,2.2-0.1c0.7-0.2,1.3-0.5,1.8-1        c0.5-0.5,1-1.1,1.4-1.9c0.4-0.8,0.6-1.5,0.6-2.2c0-0.7-0.1-1.4-0.3-2.1c-0.3-0.6-0.7-1.3-1.2-1.8        C150,298.4,149.2,297.9,148.4,297.5z"></path>
						<path class="st0" d="M154.4,290.1l5.9,3.3l-1.6,2.8l-15.1-8.4l2.5-4.6c0.6-1,1.2-1.9,1.8-2.5c0.6-0.6,1.3-1.1,1.9-1.3        c0.6-0.3,1.3-0.4,1.9-0.3c0.7,0.1,1.3,0.3,1.9,0.6c0.5,0.3,1,0.6,1.3,1c0.4,0.4,0.7,0.8,0.9,1.3c0.2,0.5,0.3,1,0.4,1.6        c0.1,0.6,0,1.2-0.1,1.8c0.4-0.2,0.9-0.4,1.4-0.4l7.7-0.7l-1.4,2.5c-0.1,0.2-0.3,0.4-0.5,0.5c-0.2,0.1-0.4,0.2-0.7,0.2        l-6.6,0.5c-0.2,0-0.4,0.1-0.6,0.2c-0.2,0.1-0.3,0.3-0.5,0.6L154.4,290.1z M152.4,289l1-1.8c0.3-0.5,0.5-1,0.6-1.5        c0.1-0.5,0.1-0.9,0-1.3c-0.1-0.4-0.3-0.7-0.5-1c-0.3-0.3-0.6-0.6-1-0.8c-0.8-0.4-1.5-0.5-2.2-0.2c-0.7,0.3-1.3,0.9-1.9,2        l-1,1.8L152.4,289z"></path>
						<path class="st0" d="M168.2,279.7l-1.7,2.8l-14.8-8.9l1.7-2.8L168.2,279.7z"></path>
						<path class="st0" d="M178.4,263.7l-1.4,2.1c-0.2,0.2-0.3,0.4-0.6,0.5s-0.4,0.1-0.6,0l-3.7-0.8l-3.9,6l2.3,3        c0.1,0.2,0.2,0.3,0.2,0.6c0,0.2,0,0.5-0.2,0.7l-1.4,2.1l-10.8-15.1l1.8-2.8L178.4,263.7z M166.8,269.5l3-4.6l-6-1.4        c-0.3-0.1-0.6-0.1-0.9-0.2c-0.4-0.1-0.7-0.2-1.1-0.3c0.3,0.3,0.5,0.6,0.8,0.9c0.2,0.3,0.4,0.5,0.6,0.8L166.8,269.5z"></path>
					</g>
				</g>
				<g>
					<g>
						<path class="st0" d="M277.1,117.1c0,0.2,0,0.4-0.1,0.5c-0.1,0.1-0.2,0.2-0.3,0.3c-0.1,0.1-0.3,0.1-0.6,0.1c-0.2,0-0.5,0-0.8,0        c-0.3,0-0.7,0-1,0.1c-0.4,0.1-0.8,0.2-1.2,0.4c-0.4,0.2-0.7,0.4-1,0.7c-0.2,0.3-0.4,0.5-0.5,0.8c-0.1,0.3-0.2,0.6-0.1,0.9        c0,0.3,0.1,0.6,0.3,0.9c0.2,0.4,0.5,0.6,0.8,0.7c0.3,0.1,0.7,0.2,1.1,0.2c0.4,0,0.9-0.1,1.4-0.2c0.5-0.1,1-0.2,1.5-0.3        c0.5-0.1,1.1-0.1,1.6-0.2c0.5,0,1,0,1.5,0.2c0.5,0.1,1,0.4,1.4,0.7c0.4,0.3,0.8,0.8,1.2,1.5c0.4,0.7,0.6,1.4,0.7,2.1        c0.1,0.7,0,1.4-0.2,2.1c-0.2,0.7-0.6,1.3-1.1,2c-0.5,0.6-1.2,1.1-2.1,1.6c-0.5,0.3-1,0.5-1.5,0.6c-0.5,0.2-1.1,0.3-1.6,0.3        c-0.5,0.1-1.1,0.1-1.6,0c-0.5,0-1-0.1-1.5-0.3l0.1-1.8c0-0.1,0.1-0.3,0.1-0.4c0.1-0.1,0.2-0.2,0.3-0.3        c0.2-0.1,0.4-0.1,0.7-0.1c0.3,0,0.6,0.1,1,0.1c0.4,0,0.8,0,1.2,0c0.5-0.1,1-0.2,1.5-0.5c0.8-0.4,1.3-1,1.6-1.6        c0.2-0.6,0.2-1.3-0.2-2c-0.2-0.4-0.5-0.7-0.8-0.8c-0.3-0.1-0.7-0.2-1.1-0.2c-0.4,0-0.9,0.1-1.4,0.2c-0.5,0.1-1,0.2-1.5,0.3        c-0.5,0.1-1,0.2-1.6,0.2c-0.5,0-1,0-1.5-0.2c-0.5-0.1-1-0.4-1.4-0.8c-0.5-0.4-0.9-0.9-1.3-1.6c-0.3-0.6-0.5-1.2-0.5-1.8        c-0.1-0.6,0-1.3,0.2-1.9c0.2-0.6,0.6-1.3,1-1.8c0.5-0.6,1.1-1.1,1.9-1.5c0.9-0.5,1.8-0.8,2.7-0.9c0.9-0.1,1.8-0.1,2.6,0.1        L277.1,117.1z"></path>
						<path class="st0" d="M298.1,113c0.6,1.2,0.9,2.3,1,3.5c0.1,1.2,0,2.3-0.4,3.3c-0.4,1.1-0.9,2-1.7,2.9c-0.8,0.9-1.8,1.6-3,2.2        c-1.2,0.6-2.4,0.9-3.5,1c-1.2,0.1-2.3-0.1-3.3-0.5c-1-0.4-2-1-2.8-1.8c-0.9-0.8-1.6-1.8-2.1-2.9c-0.6-1.2-0.9-2.3-1-3.5        c-0.1-1.2,0-2.3,0.4-3.3c0.4-1.1,0.9-2,1.7-2.9c0.8-0.9,1.8-1.6,3-2.2c1.2-0.6,2.4-0.9,3.5-1c1.2-0.1,2.3,0.1,3.3,0.5        c1,0.4,2,1,2.8,1.8C296.8,110.8,297.6,111.8,298.1,113z M295.1,114.4c-0.4-0.9-0.9-1.6-1.5-2.2c-0.6-0.6-1.2-1-1.8-1.3        c-0.7-0.3-1.4-0.4-2.1-0.3c-0.7,0-1.5,0.2-2.3,0.6c-0.8,0.4-1.4,0.8-1.9,1.4c-0.5,0.6-0.8,1.2-1,1.9c-0.2,0.7-0.3,1.4-0.2,2.2        c0.1,0.8,0.4,1.6,0.8,2.5c0.4,0.9,0.9,1.6,1.5,2.2c0.6,0.6,1.2,1,1.8,1.3c0.7,0.3,1.4,0.4,2.1,0.3c0.7,0,1.5-0.2,2.3-0.6        c0.8-0.4,1.4-0.8,1.9-1.4c0.5-0.5,0.8-1.2,1-1.8c0.2-0.7,0.2-1.4,0.1-2.2C295.8,116.1,295.5,115.3,295.1,114.4z"></path>
						<path class="st0" d="M313.5,111.5c0.2-0.1,0.3-0.1,0.5,0l1.7,0.8c-0.3,1.1-0.9,2-1.6,2.9c-0.8,0.8-1.8,1.5-3.2,2.1        c-1.2,0.5-2.3,0.8-3.5,0.7s-2.2-0.2-3.2-0.7c-1-0.4-1.9-1.1-2.6-1.9c-0.8-0.9-1.4-1.9-1.9-3.1c-0.5-1.2-0.8-2.4-0.8-3.6        c0-1.2,0.2-2.3,0.6-3.3c0.4-1,1-2,1.9-2.8c0.8-0.8,1.9-1.5,3.1-2c1.2-0.5,2.3-0.8,3.4-0.7c1.1,0,2,0.2,2.9,0.6l-0.4,1.8        c0,0.1-0.1,0.2-0.1,0.3c-0.1,0.1-0.2,0.2-0.3,0.3c-0.2,0.1-0.4,0.1-0.6,0c-0.2-0.1-0.5-0.1-0.9-0.1c-0.3,0-0.7,0-1.2,0        c-0.5,0-1,0.2-1.7,0.5c-0.8,0.3-1.4,0.7-1.9,1.3c-0.5,0.5-0.9,1.1-1.2,1.8c-0.2,0.7-0.4,1.4-0.3,2.2c0,0.8,0.2,1.6,0.6,2.5        c0.4,0.9,0.8,1.7,1.4,2.2c0.6,0.6,1.1,1,1.8,1.3c0.6,0.3,1.3,0.4,2,0.5c0.7,0,1.4-0.1,2.1-0.4c0.4-0.2,0.8-0.4,1.1-0.5        c0.3-0.2,0.6-0.4,0.8-0.6c0.2-0.2,0.4-0.4,0.6-0.7c0.2-0.3,0.4-0.5,0.5-0.9c0-0.1,0.1-0.2,0.2-0.3        C313.3,111.6,313.4,111.5,313.5,111.5z"></path>
						<path class="st0" d="M322.3,112.5l-3,1.2L313,97.4l3-1.2L322.3,112.5z"></path>
						<path class="st0" d="M340.3,106.1l-2.4,0.8c-0.3,0.1-0.5,0.1-0.7,0c-0.2-0.1-0.4-0.2-0.5-0.4l-2.4-2.9l-6.8,2.4l-0.1,3.8        c0,0.2-0.1,0.4-0.2,0.6c-0.1,0.2-0.3,0.4-0.6,0.4l-2.4,0.8L325,93l3.1-1.1L340.3,106.1z M327.5,103.6l5.3-1.8l-3.9-4.8        c-0.2-0.2-0.4-0.5-0.6-0.8c-0.2-0.3-0.5-0.6-0.7-1c0,0.4,0,0.8,0.1,1.2c0,0.4,0,0.7,0,1L327.5,103.6z"></path>
						<path class="st0" d="M344.1,102.2l6.7-2l0.8,2.6l-9.8,2.9l-5-16.7l3.1-0.9L344.1,102.2z"></path>
					</g>
				</g>
				<g>
					<g>
						<path class="st0" d="M532.6,80.8l-0.5,2.5l-7.6-1.6l-1,4.7l6,1.2l-0.5,2.4l-6-1.2l-1,4.8l7.6,1.6l-0.5,2.5l-10.8-2.2l3.5-17.1        L532.6,80.8z"></path>
						<path class="st0" d="M537.8,82c0.1,0,0.2,0.1,0.2,0.1c0.1,0.1,0.1,0.1,0.2,0.2c0.1,0.1,0.1,0.2,0.2,0.3l6,13.5        c0-0.3,0.1-0.6,0.1-0.8c0.1-0.3,0.1-0.5,0.2-0.7l2.6-10.3l2.8,0.7l-4.3,16.9l-1.6-0.4c-0.2-0.1-0.4-0.2-0.6-0.3        c-0.1-0.1-0.3-0.3-0.4-0.5l-6-13.5c0,0.3-0.1,0.5-0.1,0.8c-0.1,0.2-0.1,0.5-0.2,0.7l-2.6,10.4l-2.8-0.7l4.3-16.9l1.6,0.4        C537.6,81.9,537.8,82,537.8,82z"></path>
						<path class="st0" d="M557.4,102.9c0.7,0.2,1.3,0.3,1.9,0.4c0.6,0,1.1,0,1.6-0.1l0.9-3l-2.1-0.6c-0.2-0.1-0.3-0.2-0.4-0.3        c-0.1-0.1-0.1-0.3,0-0.5l0.5-1.8l5.5,1.7l-2.1,6.7c-0.5,0.2-1,0.3-1.6,0.4c-0.5,0.1-1.1,0.1-1.6,0.1c-0.6,0-1.2-0.1-1.8-0.2        c-0.6-0.1-1.3-0.3-1.9-0.5c-1.2-0.4-2.3-0.9-3.2-1.7c-0.9-0.7-1.6-1.6-2.1-2.6c-0.5-1-0.8-2.1-0.9-3.2c-0.1-1.2,0-2.4,0.4-3.6        c0.4-1.3,0.9-2.3,1.7-3.3c0.7-0.9,1.6-1.6,2.6-2.2c1-0.5,2.1-0.8,3.3-0.9s2.5,0.1,3.8,0.5c1.4,0.4,2.5,1,3.3,1.7        c0.9,0.7,1.6,1.5,2,2.3l-1.3,1.1c-0.3,0.2-0.5,0.3-0.8,0.2c-0.2-0.1-0.4-0.2-0.5-0.4c-0.2-0.2-0.4-0.4-0.6-0.7        c-0.2-0.2-0.5-0.4-0.7-0.6c-0.3-0.2-0.6-0.4-1-0.6c-0.4-0.2-0.8-0.4-1.3-0.5c-0.8-0.3-1.6-0.3-2.4-0.3        c-0.7,0.1-1.4,0.3-2.1,0.7s-1.2,0.9-1.7,1.5c-0.5,0.6-0.8,1.4-1.1,2.3c-0.3,1-0.4,1.9-0.4,2.7c0,0.8,0.2,1.6,0.5,2.2        c0.3,0.7,0.8,1.2,1.4,1.7C555.9,102.3,556.6,102.7,557.4,102.9z"></path>
						<path class="st0" d="M581.7,95.3l-0.9,2.4l-7.3-2.6l-1.6,4.6l5.7,2l-0.8,2.4l-5.7-2l-1.6,4.6l7.3,2.6l-0.9,2.4l-10.4-3.7        l5.8-16.4L581.7,95.3z"></path>
						<path class="st0" d="M586.8,97.2c0.1,0,0.2,0.1,0.2,0.2c0.1,0.1,0.1,0.1,0.1,0.2c0,0.1,0.1,0.2,0.1,0.3l4.1,14.2        c0.1-0.3,0.2-0.5,0.2-0.8c0.1-0.3,0.2-0.5,0.3-0.7l4-9.8l2.6,1.1l-6.5,16.2l-1.6-0.6c-0.2-0.1-0.4-0.2-0.5-0.4        c-0.1-0.1-0.2-0.3-0.3-0.6l-4.1-14.2c-0.1,0.2-0.2,0.5-0.2,0.7c-0.1,0.2-0.2,0.5-0.2,0.6l-4,9.9l-2.6-1.1l6.5-16.2l1.6,0.6        C586.6,97.1,586.7,97.2,586.8,97.2z"></path>
						<path class="st0" d="M608.4,125.6l-3-1.4l3.2-6.9l-7.4-3.4l-3.2,6.9l-3-1.4l7.3-15.8l3,1.4l-3.2,6.8l7.4,3.4l3.2-6.8l3,1.4        L608.4,125.6z"></path>
						<path class="st0" d="M624.8,134.2l-2.2-1.2c-0.2-0.1-0.4-0.3-0.5-0.5c-0.1-0.2-0.1-0.4-0.1-0.6l0.5-3.8l-6.4-3.4l-2.8,2.5        c-0.1,0.1-0.3,0.2-0.6,0.3c-0.2,0-0.5,0-0.7-0.1l-2.2-1.2l14.2-12.2l2.9,1.5L624.8,134.2z M617.9,123.2l4.9,2.6l0.8-6.1        c0-0.3,0.1-0.6,0.1-1c0.1-0.4,0.1-0.8,0.2-1.2c-0.3,0.3-0.6,0.6-0.8,0.9c-0.3,0.3-0.5,0.5-0.7,0.7L617.9,123.2z"></path>
						<path class="st0" d="M632.6,130.9l-3.4,5.9l-2.8-1.6l8.8-15.1l4.6,2.7c1,0.6,1.8,1.2,2.5,1.9c0.6,0.6,1,1.3,1.3,1.9        c0.2,0.7,0.3,1.3,0.2,2c-0.1,0.7-0.3,1.3-0.7,1.9c-0.3,0.5-0.7,0.9-1.1,1.3c-0.4,0.4-0.9,0.6-1.4,0.8c-0.5,0.2-1,0.3-1.6,0.4        c-0.6,0-1.2,0-1.8-0.2c0.2,0.4,0.4,0.9,0.4,1.4l0.5,7.8l-2.5-1.5c-0.2-0.1-0.4-0.3-0.5-0.5c-0.1-0.2-0.2-0.4-0.2-0.7l-0.3-6.7        c0-0.3-0.1-0.5-0.2-0.6c-0.1-0.2-0.3-0.3-0.6-0.5L632.6,130.9z M633.8,128.9l1.8,1c0.5,0.3,1,0.5,1.5,0.6        c0.5,0.1,0.9,0.1,1.3,0c0.4-0.1,0.7-0.3,1.1-0.5c0.3-0.2,0.6-0.6,0.8-0.9c0.4-0.8,0.5-1.5,0.3-2.2c-0.3-0.7-0.9-1.4-1.9-2        l-1.8-1L633.8,128.9z"></path>
						<path class="st0" d="M642.8,145l-2.8-1.7l9.3-14.8l2.8,1.7L642.8,145z"></path>
						<path class="st0" d="M658.7,155.6l-2.1-1.4c-0.2-0.2-0.4-0.3-0.5-0.6c-0.1-0.2-0.1-0.4,0-0.6l0.9-3.7l-6-4l-3.1,2.2        c-0.2,0.1-0.4,0.2-0.6,0.2s-0.5,0-0.7-0.2l-2.1-1.4l15.4-10.6l2.7,1.9L658.7,155.6z M653,143.8l4.6,3.1l1.5-6        c0.1-0.3,0.1-0.6,0.2-0.9c0.1-0.4,0.2-0.7,0.4-1.1c-0.3,0.3-0.6,0.5-0.9,0.8c-0.3,0.2-0.5,0.4-0.8,0.6L653,143.8z"></path>
					</g>
				</g>
				<g>
					<g>
						<path class="st0" d="M782.2,269.1l-2.2,1.3l-3.8-6.7l-4.5,2.5l3.2,5.7l-2.3,1.3l-3.2-5.7l-6.2,3.5l-1.6-2.8l15.2-8.6        L782.2,269.1z"></path>
						<path class="st0" d="M769.8,283l-1.5-2.9l15.4-8.1l1.5,2.9L769.8,283z"></path>
						<path class="st0" d="M788.2,280.7c0,0.1,0,0.2,0,0.3c0,0.1,0,0.2,0,0.3c0,0.1-0.1,0.2-0.1,0.3l-6.5,13.3        c0.2-0.1,0.5-0.3,0.7-0.4c0.2-0.1,0.5-0.2,0.7-0.3l9.5-4.6l1.2,2.6l-15.7,7.6l-0.7-1.5c-0.1-0.2-0.2-0.4-0.2-0.6        c0-0.2,0.1-0.4,0.2-0.6l6.5-13.2c-0.2,0.1-0.4,0.3-0.7,0.4c-0.2,0.1-0.4,0.2-0.6,0.3l-9.6,4.7l-1.2-2.6l15.7-7.6l0.7,1.5        C788.1,280.5,788.2,280.6,788.2,280.7z"></path>
						<path class="st0" d="M785.4,316.7l-1-2.3c-0.1-0.3-0.1-0.5-0.1-0.7c0.1-0.2,0.2-0.4,0.3-0.6l2.8-2.6l-2.8-6.6l-3.8,0.2        c-0.2,0-0.4,0-0.6-0.2c-0.2-0.1-0.4-0.3-0.5-0.5l-1-2.3l18.7-0.5l1.3,3.1L785.4,316.7z M787,303.8l2.2,5.1l4.5-4.2        c0.2-0.2,0.4-0.4,0.7-0.6c0.3-0.2,0.6-0.5,0.9-0.8c-0.4,0.1-0.8,0.1-1.2,0.1s-0.7,0.1-1,0.1L787,303.8z"></path>
						<path class="st0" d="M803,314.1c0,0.1,0,0.2,0,0.3c0,0.1,0,0.2-0.1,0.3c0,0.1-0.1,0.2-0.2,0.3l-7.8,12.6        c0.3-0.1,0.5-0.2,0.8-0.3c0.2-0.1,0.5-0.2,0.7-0.3l9.9-3.7l1,2.7l-16.4,6l-0.6-1.6c-0.1-0.2-0.1-0.5-0.1-0.6        c0-0.2,0.1-0.4,0.2-0.6l7.7-12.6c-0.2,0.1-0.5,0.2-0.7,0.3c-0.2,0.1-0.4,0.2-0.6,0.3l-10,3.7l-1-2.7l16.4-6l0.6,1.6        C802.9,313.9,802.9,314,803,314.1z"></path>
						<path class="st0" d="M799.6,345.4c0.1,0.2,0,0.3-0.1,0.5l-0.9,1.6c-1-0.4-1.9-1-2.7-1.9c-0.8-0.8-1.3-2-1.8-3.3        c-0.4-1.2-0.5-2.4-0.4-3.5c0.1-1.1,0.4-2.1,1-3.1s1.3-1.8,2.2-2.4c0.9-0.7,2-1.2,3.2-1.6c1.2-0.4,2.5-0.5,3.6-0.5        c1.2,0.1,2.3,0.4,3.2,0.9c1,0.5,1.9,1.2,2.6,2.1c0.7,0.9,1.3,2,1.7,3.3c0.4,1.2,0.5,2.4,0.4,3.4c-0.1,1-0.4,2-0.8,2.9        l-1.8-0.6c-0.1,0-0.2-0.1-0.3-0.2c-0.1-0.1-0.2-0.2-0.2-0.4c-0.1-0.2,0-0.4,0-0.6c0.1-0.2,0.2-0.5,0.2-0.8        c0.1-0.3,0.1-0.7,0.1-1.2c0-0.5-0.1-1-0.3-1.7c-0.2-0.8-0.6-1.5-1.1-2c-0.5-0.6-1-1-1.7-1.3c-0.7-0.3-1.4-0.5-2.2-0.5        c-0.8,0-1.7,0.1-2.6,0.4c-0.9,0.3-1.7,0.7-2.4,1.2c-0.6,0.5-1.1,1-1.5,1.7c-0.4,0.6-0.6,1.3-0.6,2c-0.1,0.7,0,1.4,0.2,2.1        c0.1,0.4,0.3,0.8,0.4,1.1c0.2,0.3,0.3,0.6,0.5,0.9c0.2,0.3,0.4,0.5,0.6,0.7s0.5,0.4,0.8,0.6c0.1,0.1,0.2,0.1,0.2,0.2        C799.5,345.2,799.5,345.3,799.6,345.4z"></path>
						<path class="st0" d="M816.4,356.5l-2.5,0.7l-2-7.5l-4.7,1.3l1.6,5.9l-2.4,0.7l-1.6-5.9l-4.8,1.3l2,7.5l-2.5,0.7l-2.9-10.6        l16.8-4.5L816.4,356.5z"></path>
					</g>
				</g>
				<g>
					<g>
						<path class="st0" d="M101.8,546.1l-2.6,0.7l-1.3-5l-14.2,3.6l-0.8-3.1l14.2-3.6l-1.3-5.1l2.6-0.7L101.8,546.1z"></path>
						<path class="st0" d="M105.4,558.3l-2.5,0.7l-2.2-7.3l-4.6,1.4l1.7,5.8l-2.4,0.7l-1.7-5.8l-4.7,1.4l2.2,7.3l-2.5,0.7l-3.1-10.5        l16.6-4.9L105.4,558.3z"></path>
						<path class="st0" d="M93.3,568.4l2.2,6.6l-2.5,0.8l-3.2-9.6l16.4-5.5l1,3L93.3,568.4z"></path>
						<path class="st0" d="M113.9,582.4l-2.4,0.9l-2.7-7.2l-4.5,1.7l2.1,5.7l-2.3,0.9l-2.1-5.7l-4.6,1.7l2.7,7.2l-2.4,0.9l-3.8-10.2        l16.2-6.1L113.9,582.4z"></path>
						<path class="st0" d="M107.3,600.8c0.1,0.2,0.1,0.3,0,0.5l-0.8,1.7c-1.1-0.3-2-0.8-2.8-1.6c-0.8-0.8-1.5-1.8-2.1-3.1        c-0.5-1.2-0.7-2.3-0.7-3.4c0-1.1,0.2-2.2,0.7-3.1c0.4-1,1.1-1.8,1.9-2.6c0.8-0.8,1.9-1.4,3-1.9c1.2-0.5,2.4-0.8,3.5-0.8        c1.2,0,2.3,0.2,3.3,0.6c1,0.4,1.9,1,2.8,1.9c0.8,0.8,1.5,1.9,2,3.1c0.5,1.2,0.7,2.3,0.7,3.3c0,1-0.2,2-0.5,2.9l-1.8-0.4        c-0.1,0-0.2-0.1-0.3-0.1c-0.1-0.1-0.2-0.2-0.3-0.3c-0.1-0.2-0.1-0.4,0-0.6c0.1-0.2,0.1-0.5,0.1-0.9c0-0.3,0-0.7,0-1.2        c0-0.5-0.2-1-0.5-1.7c-0.3-0.8-0.7-1.4-1.3-1.9c-0.5-0.5-1.1-0.9-1.8-1.1c-0.7-0.2-1.4-0.4-2.2-0.3c-0.8,0-1.6,0.2-2.5,0.6        c-0.9,0.4-1.6,0.8-2.2,1.4c-0.6,0.5-1,1.1-1.3,1.8c-0.3,0.6-0.4,1.3-0.4,2c0,0.7,0.1,1.4,0.4,2.1c0.2,0.4,0.3,0.8,0.5,1.1        c0.2,0.3,0.4,0.6,0.6,0.8c0.2,0.2,0.4,0.4,0.7,0.6c0.3,0.2,0.5,0.3,0.9,0.5c0.1,0,0.2,0.1,0.3,0.2        C107.2,600.6,107.2,600.7,107.3,600.8z"></path>
						<path class="st0" d="M120.4,617.9c-1.1,0.5-2.3,0.9-3.4,1c-1.2,0.1-2.3,0-3.3-0.4c-1-0.3-2-0.9-2.9-1.7        c-0.9-0.8-1.6-1.8-2.1-2.9c-0.6-1.2-0.9-2.3-1-3.5c-0.1-1.2,0.1-2.3,0.5-3.3c0.4-1,1-2,1.8-2.8c0.8-0.8,1.8-1.5,2.9-2.1        c1.1-0.6,2.3-0.9,3.4-1c1.2-0.1,2.3,0,3.3,0.4c1,0.4,2,0.9,2.9,1.7c0.9,0.8,1.6,1.8,2.1,2.9c0.6,1.2,0.9,2.3,0.9,3.5        c0.1,1.2-0.1,2.3-0.5,3.3c-0.4,1-1,2-1.7,2.8C122.5,616.7,121.5,617.4,120.4,617.9z M118.9,614.9c0.9-0.4,1.6-0.9,2.1-1.4        c0.6-0.6,1-1.2,1.3-1.8c0.3-0.7,0.4-1.3,0.3-2.1c0-0.7-0.2-1.5-0.6-2.2c-0.4-0.8-0.8-1.4-1.4-1.9c-0.5-0.5-1.2-0.8-1.8-1        c-0.7-0.2-1.4-0.3-2.2-0.2c-0.8,0.1-1.6,0.4-2.5,0.8c-0.9,0.4-1.6,0.9-2.1,1.5c-0.6,0.6-1,1.2-1.2,1.8        c-0.3,0.7-0.4,1.3-0.3,2.1c0,0.7,0.2,1.5,0.6,2.2c0.4,0.8,0.8,1.4,1.4,1.9c0.5,0.5,1.2,0.8,1.8,1c0.7,0.2,1.4,0.2,2.2,0.1        C117.3,615.6,118.1,615.4,118.9,614.9z"></path>
						<path class="st0" d="M124,629.3c-0.2,0.2-0.4,0.5-0.6,0.7c0.3,0,0.6-0.1,0.9-0.1c0.3,0,0.6,0,0.9-0.1l10.9-0.2        c0.1,0,0.2,0,0.3,0c0.1,0,0.2,0.1,0.2,0.1c0.1,0.1,0.1,0.1,0.2,0.2c0.1,0.1,0.1,0.2,0.2,0.3l1.2,2.1l-15.1,8.4l-1.4-2.5        l9.8-5.4c0.2-0.1,0.4-0.2,0.6-0.3c0.2-0.1,0.4-0.2,0.7-0.3l-11.1,0.2c-0.3,0-0.5-0.1-0.7-0.2c-0.2-0.1-0.4-0.3-0.5-0.5        l-0.2-0.4c-0.1-0.2-0.2-0.4-0.2-0.7c0-0.2,0.1-0.4,0.2-0.7l6.1-9.4c-0.2,0.2-0.4,0.3-0.6,0.4c-0.2,0.1-0.4,0.3-0.6,0.4        l-9.8,5.4l-1.4-2.5l15.1-8.4l1.2,2.1c0.1,0.1,0.1,0.2,0.2,0.3c0,0.1,0.1,0.2,0.1,0.3c0,0.1,0,0.2,0,0.3c0,0.1-0.1,0.2-0.2,0.3        l-5.9,9.2C124.3,628.8,124.2,629.1,124,629.3z"></path>
					</g>
				</g>
				<g>
					<g>
						<path class="st0" d="M244.1,746.7l-1.5,2.1l-4.2-3l-8.6,11.9l-2.6-1.9l8.6-11.9l-4.2-3.1l1.5-2.1L244.1,746.7z"></path>
						<path class="st0" d="M254.7,753.8l-1.4,2.1l-6.4-4.3l-2.7,4l5,3.4l-1.4,2.1l-5-3.4l-2.7,4.1l6.4,4.3l-1.4,2.1l-9.1-6l9.6-14.4        L254.7,753.8z"></path>
						<path class="st0" d="M254.2,765.8l-3.5,5.8l-2.7-1.7l9-14.8l4.5,2.7c1,0.6,1.8,1.2,2.4,1.9c0.6,0.6,1,1.3,1.2,1.9        c0.2,0.7,0.3,1.3,0.2,2c-0.1,0.7-0.3,1.3-0.7,1.9c-0.3,0.5-0.7,0.9-1.1,1.3c-0.4,0.4-0.9,0.6-1.4,0.8c-0.5,0.2-1,0.3-1.6,0.3        c-0.6,0-1.2,0-1.8-0.2c0.2,0.4,0.4,0.9,0.4,1.4l0.4,7.7l-2.5-1.5c-0.2-0.1-0.4-0.3-0.5-0.5c-0.1-0.2-0.2-0.4-0.2-0.7l-0.2-6.6        c0-0.3-0.1-0.5-0.2-0.6c-0.1-0.2-0.3-0.3-0.6-0.5L254.2,765.8z M255.4,763.9l1.7,1c0.5,0.3,1,0.5,1.5,0.6        c0.5,0.1,0.9,0.1,1.3,0c0.4-0.1,0.7-0.2,1.1-0.5c0.3-0.2,0.6-0.5,0.8-0.9c0.5-0.7,0.6-1.5,0.3-2.2c-0.3-0.7-0.9-1.4-1.9-2        l-1.8-1.1L255.4,763.9z"></path>
						<path class="st0" d="M273.5,780.1c0.2,0.1,0.3,0.2,0.3,0.4l0.4,1.8c-1,0.4-2.1,0.6-3.2,0.5c-1.1-0.1-2.3-0.5-3.6-1.2        c-1.1-0.6-2-1.4-2.7-2.3c-0.7-0.9-1.2-1.8-1.4-2.9c-0.3-1-0.3-2.1-0.1-3.3c0.2-1.1,0.6-2.3,1.2-3.4c0.6-1.1,1.4-2.1,2.3-2.8        c0.9-0.7,1.9-1.3,2.9-1.6c1.1-0.3,2.2-0.4,3.3-0.2c1.2,0.1,2.3,0.5,3.5,1.2c1.1,0.6,2,1.3,2.6,2.2c0.6,0.8,1.1,1.7,1.4,2.6        l-1.7,0.8c-0.1,0.1-0.2,0.1-0.3,0.1c-0.1,0-0.3,0-0.4-0.1c-0.2-0.1-0.3-0.2-0.4-0.5c-0.1-0.2-0.2-0.5-0.4-0.8        c-0.2-0.3-0.4-0.6-0.8-0.9c-0.3-0.3-0.8-0.7-1.4-1c-0.7-0.4-1.4-0.6-2.2-0.7c-0.7-0.1-1.4,0-2.1,0.2c-0.7,0.2-1.3,0.6-1.9,1.1        c-0.6,0.5-1.1,1.2-1.6,2c-0.5,0.8-0.8,1.7-0.9,2.5c-0.1,0.8-0.1,1.5,0,2.2c0.2,0.7,0.5,1.3,0.9,1.8c0.4,0.5,1,1,1.6,1.4        c0.4,0.2,0.7,0.4,1.1,0.5c0.3,0.1,0.7,0.2,1,0.3c0.3,0.1,0.6,0.1,0.9,0.1c0.3,0,0.6-0.1,1-0.1c0.1,0,0.2,0,0.3,0        C273.4,780.1,273.5,780.1,273.5,780.1z"></path>
						<path class="st0" d="M293.1,775.3l-1.1,2.3l-6.8-3.4l-2.2,4.3l5.4,2.7l-1.1,2.2l-5.4-2.7l-2.2,4.4l6.8,3.4l-1.2,2.3l-9.7-4.9        l7.8-15.5L293.1,775.3z"></path>
						<path class="st0" d="M291.4,793.5l-2.9-1.4l7.3-15.7l2.9,1.4L291.4,793.5z"></path>
						<path class="st0" d="M301,790.4l-2.7,6.2l-3-1.3l6.8-15.9l4.8,2.1c1.1,0.5,2,1,2.6,1.5c0.7,0.6,1.2,1.1,1.5,1.8        c0.3,0.6,0.5,1.3,0.5,1.9c0,0.7-0.2,1.3-0.4,2c-0.2,0.5-0.5,1-0.9,1.4c-0.4,0.4-0.8,0.7-1.2,1c-0.5,0.3-1,0.4-1.5,0.6        c-0.6,0.1-1.2,0.1-1.8,0.1c0.3,0.4,0.5,0.8,0.6,1.3l1.5,7.6l-2.7-1.1c-0.3-0.1-0.5-0.3-0.6-0.4c-0.1-0.2-0.2-0.4-0.3-0.6        l-1.2-6.5c0-0.2-0.1-0.4-0.2-0.6c-0.1-0.1-0.3-0.3-0.6-0.4L301,790.4z M301.9,788.3l1.8,0.8c0.6,0.2,1.1,0.4,1.5,0.4        c0.5,0,0.9,0,1.3-0.1c0.4-0.1,0.7-0.3,1-0.6c0.3-0.3,0.5-0.6,0.7-1c0.3-0.8,0.3-1.5,0-2.2c-0.3-0.7-1.1-1.2-2.2-1.7l-1.9-0.8        L301.9,788.3z"></path>
						<path class="st0" d="M313.4,802.9l-3-1.2l6.3-16.1l3,1.2L313.4,802.9z"></path>
						<path class="st0" d="M334.7,792.2l-0.4,1.1c-0.1,0.3-0.3,0.6-0.6,0.8l-12.6,8.8l8.4,3l-0.9,2.4l-12.4-4.4l0.4-1.2        c0.1-0.1,0.1-0.3,0.2-0.4c0.1-0.1,0.2-0.2,0.3-0.3l12.6-8.9l-8.1-2.9l0.9-2.4L334.7,792.2z"></path>
						<path class="st0" d="M346.2,813.9l-2.4-0.7c-0.3-0.1-0.5-0.2-0.6-0.4c-0.1-0.2-0.2-0.4-0.2-0.6l-0.2-3.7l-6.8-2.1l-2.3,3        c-0.1,0.2-0.3,0.3-0.5,0.4c-0.2,0.1-0.5,0.1-0.7,0l-2.4-0.7l11.6-14.5l3.1,1L346.2,813.9z M337.4,804.4l5.3,1.6l-0.3-6.1        c0-0.3,0-0.6,0-1c0-0.4,0-0.8,0-1.2c-0.2,0.4-0.4,0.7-0.6,1c-0.2,0.3-0.4,0.6-0.6,0.8L337.4,804.4z"></path>
						<path class="st0" d="M352.7,818.4c0.1,0,0.1,0,0.2,0.1c0.1,0,0.1,0.1,0.2,0.1c0.1,0,0.1,0.1,0.2,0.1c0.1,0,0.2,0.1,0.3,0.1        c0.3,0.1,0.5,0.1,0.6,0c0.2-0.1,0.2-0.2,0.3-0.3c0.1-0.2,0-0.4-0.3-0.6c-0.3-0.2-0.7-0.4-1.2-0.6l0.8-1.3        c-1.1-0.4-2-0.9-2.7-1.6c-0.7-0.7-1.3-1.5-1.7-2.4c-0.4-0.9-0.6-1.9-0.7-3c-0.1-1.1,0.1-2.2,0.4-3.3c0.3-1.3,0.8-2.4,1.5-3.3        c0.7-0.9,1.5-1.7,2.5-2.2c1-0.6,2-0.9,3.2-1.1c1.2-0.1,2.4,0,3.6,0.3c1.2,0.3,2.3,0.8,3.1,1.4c0.8,0.6,1.5,1.4,2,2.2l-1.4,1.2        c-0.1,0.1-0.2,0.1-0.3,0.2c-0.1,0-0.3,0-0.4,0c-0.2,0-0.3-0.2-0.5-0.3c-0.1-0.2-0.3-0.4-0.6-0.6c-0.2-0.2-0.6-0.5-1-0.7        c-0.4-0.3-0.9-0.5-1.6-0.6c-0.8-0.2-1.5-0.3-2.3-0.2c-0.7,0.1-1.4,0.3-2,0.7c-0.6,0.4-1.1,0.9-1.6,1.6c-0.5,0.7-0.8,1.4-1,2.4        c-0.2,0.9-0.3,1.8-0.3,2.6c0.1,0.8,0.3,1.5,0.6,2.1c0.3,0.6,0.8,1.1,1.3,1.6c0.5,0.4,1.2,0.7,1.9,0.9c0.4,0.1,0.8,0.2,1.2,0.2        c0.4,0,0.7,0,1,0s0.6-0.1,0.9-0.2c0.3-0.1,0.6-0.2,0.9-0.4c0.1,0,0.2-0.1,0.3-0.1c0.1,0,0.2,0,0.3,0c0.2,0,0.3,0.1,0.4,0.3        l0.9,1.7c-0.8,0.6-1.7,1-2.7,1.3c-1,0.2-2.1,0.2-3.3-0.1l-0.3,0.5c0.6,0.4,1.1,0.7,1.3,1.1c0.2,0.4,0.3,0.7,0.2,1.1        c-0.1,0.3-0.2,0.5-0.4,0.6c-0.2,0.2-0.4,0.3-0.7,0.4c-0.3,0.1-0.6,0.1-1,0.1c-0.4,0-0.8-0.1-1.2-0.2c-0.3-0.1-0.6-0.2-0.9-0.3        c-0.3-0.1-0.5-0.3-0.8-0.4l0.5-0.8C352.4,818.4,352.6,818.4,352.7,818.4z"></path>
						<path class="st0" d="M378.6,821.6l-2.4-0.5c-0.3-0.1-0.5-0.2-0.6-0.3c-0.1-0.2-0.2-0.4-0.3-0.6l-0.5-3.7l-7-1.5l-2,3.2        c-0.1,0.2-0.3,0.3-0.5,0.4c-0.2,0.1-0.5,0.1-0.7,0.1l-2.4-0.5l10.3-15.5l3.2,0.7L378.6,821.6z M369.1,812.9l5.4,1.2l-0.9-6.1        c0-0.3-0.1-0.6-0.1-0.9s-0.1-0.8-0.1-1.2c-0.2,0.4-0.4,0.7-0.6,1c-0.2,0.3-0.4,0.6-0.5,0.8L369.1,812.9z M376.1,800.3        c0.2,0,0.4,0,0.5-0.1c0.2-0.1,0.3-0.3,0.3-0.5l1.6,0.3c-0.1,0.4-0.2,0.7-0.4,1c-0.2,0.3-0.4,0.5-0.6,0.7        c-0.2,0.2-0.5,0.3-0.8,0.4c-0.3,0.1-0.6,0.1-1,0c-0.3-0.1-0.5-0.2-0.8-0.3c-0.2-0.1-0.5-0.3-0.7-0.4s-0.4-0.3-0.6-0.4        c-0.2-0.1-0.4-0.2-0.5-0.2c-0.2,0-0.4,0-0.5,0.1c-0.2,0.1-0.3,0.3-0.3,0.5l-1.6-0.3c0.1-0.4,0.2-0.7,0.4-1        c0.2-0.3,0.4-0.5,0.6-0.7c0.2-0.2,0.5-0.3,0.8-0.4c0.3-0.1,0.6-0.1,1,0c0.3,0.1,0.5,0.2,0.8,0.3c0.2,0.1,0.5,0.3,0.7,0.4        c0.2,0.2,0.4,0.3,0.6,0.4C375.7,800.2,375.9,800.2,376.1,800.3z"></path>
						<path class="st0" d="M398.1,816.1c-0.2,1.2-0.6,2.4-1.2,3.4c-0.6,1-1.3,1.8-2.2,2.5s-1.9,1.1-3,1.4c-1.1,0.3-2.3,0.3-3.6,0.1        s-2.4-0.6-3.4-1.2c-1-0.6-1.8-1.4-2.4-2.3c-0.6-0.9-1.1-1.9-1.3-3.1c-0.2-1.1-0.3-2.3,0-3.6c0.2-1.2,0.6-2.4,1.2-3.4        c0.6-1,1.3-1.8,2.2-2.5c0.9-0.7,1.9-1.1,3-1.4c1.1-0.3,2.3-0.3,3.6-0.1c1.3,0.2,2.4,0.6,3.4,1.2c1,0.6,1.8,1.4,2.4,2.3        c0.6,0.9,1.1,1.9,1.3,3.1C398.2,813.6,398.3,814.8,398.1,816.1z M394.8,815.5c0.2-0.9,0.2-1.8,0-2.6c-0.1-0.8-0.4-1.5-0.8-2.1        c-0.4-0.6-0.9-1.1-1.5-1.5c-0.6-0.4-1.3-0.6-2.2-0.8c-0.8-0.1-1.6-0.1-2.3,0c-0.7,0.2-1.3,0.5-1.9,0.9c-0.6,0.4-1,1-1.4,1.7        c-0.4,0.7-0.6,1.5-0.8,2.5c-0.2,0.9-0.2,1.8,0,2.6c0.1,0.8,0.4,1.5,0.8,2.1c0.4,0.6,0.9,1.1,1.5,1.5s1.4,0.6,2.2,0.8        c0.8,0.1,1.6,0.1,2.3,0s1.3-0.5,1.9-0.9c0.5-0.4,1-1,1.4-1.7C394.4,817.3,394.6,816.5,394.8,815.5z"></path>
					</g>
				</g>
				<g>
					<g>
						<path class="st0" d="M530.3,802.1l0.5,2.5l-7.5,1.6l1,5l6.3-1.3l0.5,2.5l-6.3,1.3l1.4,6.9l-3.2,0.7l-3.5-16.9L530.3,802.1z"></path>
						<path class="st0" d="M538.3,811l1.6,6.6l-3.1,0.8l-4.2-16.8l5.1-1.3c1.1-0.3,2.2-0.4,3-0.4c0.9,0,1.6,0.2,2.3,0.5        c0.6,0.3,1.1,0.7,1.5,1.2c0.4,0.5,0.7,1.2,0.9,1.9c0.1,0.6,0.2,1.1,0.2,1.7c0,0.5-0.2,1.1-0.4,1.5c-0.2,0.5-0.5,0.9-0.9,1.4        c-0.4,0.4-0.8,0.8-1.4,1.1c0.4,0.1,0.9,0.4,1.3,0.7l5.8,5.1l-2.8,0.7c-0.3,0.1-0.5,0.1-0.7,0c-0.2-0.1-0.4-0.2-0.6-0.3        l-4.9-4.5c-0.2-0.2-0.4-0.3-0.5-0.3c-0.2,0-0.4,0-0.7,0L538.3,811z M537.8,808.7l1.9-0.5c0.6-0.1,1.1-0.3,1.5-0.6        c0.4-0.3,0.7-0.6,0.9-0.9c0.2-0.3,0.4-0.7,0.4-1.1c0.1-0.4,0-0.8-0.1-1.2c-0.2-0.8-0.7-1.4-1.3-1.7c-0.7-0.3-1.6-0.3-2.7,0        l-2,0.5L537.8,808.7z"></path>
						<path class="st0" d="M566.9,810l-2.4,0.7c-0.3,0.1-0.5,0.1-0.7,0c-0.2-0.1-0.4-0.2-0.5-0.4l-2.2-3l-6.9,2.1l-0.2,3.7        c0,0.2-0.1,0.4-0.2,0.6s-0.3,0.3-0.6,0.4l-2.4,0.7l1.6-18.5l3.2-0.9L566.9,810z M554.3,806.9l5.3-1.6l-3.7-4.9        c-0.2-0.2-0.4-0.5-0.6-0.8c-0.2-0.3-0.4-0.6-0.7-1c0,0.4,0,0.8,0,1.2s0,0.7,0,1L554.3,806.9z"></path>
						<path class="st0" d="M565.3,792.3c0.1,0,0.2,0,0.3,0c0.1,0,0.2,0,0.3,0.1c0.1,0,0.2,0.1,0.3,0.2l12.4,7.9        c-0.1-0.3-0.2-0.5-0.3-0.8s-0.2-0.5-0.3-0.7l-3.5-9.9l2.7-0.9l5.7,16.3l-1.6,0.5c-0.2,0.1-0.5,0.1-0.6,0.1        c-0.2,0-0.4-0.1-0.6-0.2l-12.4-7.9c0.1,0.2,0.2,0.5,0.3,0.7c0.1,0.2,0.2,0.4,0.2,0.6l3.5,10l-2.7,0.9l-5.7-16.3l1.6-0.6        C565,792.3,565.2,792.3,565.3,792.3z"></path>
						<path class="st0" d="M598.7,788.7c0.3,0.7,0.5,1.4,0.6,2.1c0.1,0.7,0.2,1.4,0.1,2.1c0,0.7-0.2,1.3-0.4,2        c-0.2,0.6-0.5,1.2-0.8,1.8l5.9,2.8l-2.5,1c-0.4,0.1-0.7,0.2-1,0.2c-0.3,0-0.7,0-1-0.2l-3.4-1.6c-0.3,0.3-0.7,0.5-1.1,0.7        c-0.4,0.2-0.8,0.4-1.2,0.6c-1.2,0.5-2.4,0.7-3.6,0.7c-1.2,0-2.3-0.2-3.3-0.7c-1-0.4-1.9-1.1-2.7-1.9c-0.8-0.8-1.4-1.8-1.9-3        c-0.5-1.2-0.7-2.3-0.7-3.5c0-1.2,0.2-2.3,0.6-3.3c0.4-1,1-1.9,1.9-2.8c0.8-0.8,1.9-1.5,3.1-2c1.2-0.5,2.4-0.7,3.6-0.7        c1.2,0,2.3,0.2,3.3,0.7c1,0.4,1.9,1.1,2.7,1.9C597.6,786.5,598.2,787.5,598.7,788.7z M595.6,789.9c-0.4-0.9-0.8-1.6-1.3-2.2        c-0.5-0.6-1.1-1.1-1.7-1.4c-0.6-0.3-1.3-0.5-2-0.5c-0.7,0-1.5,0.2-2.3,0.5c-0.8,0.3-1.4,0.7-2,1.3c-0.5,0.5-0.9,1.1-1.1,1.8        s-0.3,1.4-0.3,2.2c0.1,0.8,0.3,1.6,0.6,2.5c0.4,0.9,0.8,1.6,1.3,2.2c0.5,0.6,1.1,1.1,1.7,1.4c0.6,0.3,1.3,0.5,2.1,0.5        c0.7,0,1.5-0.2,2.3-0.5c0.8-0.3,1.4-0.7,1.9-1.3s0.9-1.1,1.1-1.8s0.3-1.4,0.3-2.2C596.2,791.6,596,790.8,595.6,789.9z"></path>
						<path class="st0" d="M609.9,790.1c0.6-0.3,1-0.6,1.4-1c0.4-0.4,0.6-0.8,0.8-1.3c0.1-0.5,0.2-1,0.1-1.6        c-0.1-0.6-0.2-1.1-0.5-1.7l-4.4-9.4l2.9-1.4l4.4,9.4c0.4,0.9,0.7,1.9,0.8,2.8c0.1,0.9,0,1.8-0.3,2.7c-0.3,0.8-0.8,1.6-1.4,2.3        c-0.6,0.7-1.5,1.3-2.5,1.8c-1,0.5-2,0.7-2.9,0.8c-1,0.1-1.8-0.1-2.7-0.4c-0.8-0.3-1.6-0.8-2.3-1.4c-0.7-0.6-1.2-1.4-1.7-2.4        l-4.4-9.4l2.9-1.4l4.4,9.4c0.3,0.6,0.6,1.1,1,1.5c0.4,0.4,0.8,0.7,1.3,0.9c0.5,0.2,1,0.3,1.5,0.3        C608.8,790.5,609.4,790.3,609.9,790.1z"></path>
						<path class="st0" d="M624,786l-2.9,1.5l-7.9-15.4l2.9-1.5L624,786z"></path>
						<path class="st0" d="M641,776.8l-2.2,1.2c-0.2,0.1-0.5,0.2-0.7,0.1c-0.2,0-0.4-0.1-0.6-0.3l-2.8-2.5l-6.3,3.5l0.6,3.7        c0,0.2,0,0.4-0.1,0.6c-0.1,0.2-0.3,0.4-0.5,0.5l-2.2,1.2l-2.5-18.4l2.9-1.6L641,776.8z M628.1,776.5l4.8-2.7l-4.6-4        c-0.2-0.2-0.4-0.4-0.7-0.6c-0.3-0.2-0.6-0.5-0.8-0.8c0.1,0.4,0.2,0.8,0.3,1.2c0.1,0.4,0.1,0.7,0.2,1L628.1,776.5z"></path>
						<path class="st0" d="M643.5,758.6c0,0.2,0,0.4-0.1,0.5c-0.1,0.1-0.2,0.2-0.3,0.3s-0.3,0.1-0.6,0.1c-0.2,0-0.5,0-0.8,0        c-0.3,0-0.7,0.1-1,0.1c-0.4,0.1-0.8,0.3-1.2,0.5c-0.4,0.2-0.7,0.5-0.9,0.7c-0.2,0.3-0.4,0.5-0.5,0.8c-0.1,0.3-0.1,0.6-0.1,0.8        c0,0.3,0.1,0.6,0.3,0.8c0.2,0.3,0.5,0.6,0.8,0.7c0.3,0.1,0.7,0.2,1.1,0.1c0.4,0,0.9-0.1,1.4-0.2c0.5-0.1,1-0.2,1.5-0.4        c0.5-0.1,1-0.2,1.6-0.3c0.5-0.1,1,0,1.5,0.1c0.5,0.1,1,0.3,1.4,0.6c0.5,0.3,0.9,0.8,1.2,1.4c0.4,0.7,0.7,1.4,0.8,2.1        c0.1,0.7,0.1,1.4-0.1,2.1c-0.2,0.7-0.5,1.4-1,2c-0.5,0.6-1.1,1.2-1.9,1.7c-0.5,0.3-1,0.5-1.5,0.7c-0.5,0.2-1,0.3-1.6,0.4        c-0.5,0.1-1,0.1-1.5,0.1c-0.5,0-1-0.1-1.5-0.2l0-1.8c0-0.1,0.1-0.3,0.1-0.4s0.2-0.2,0.3-0.3c0.2-0.1,0.4-0.1,0.7-0.1        c0.3,0,0.6,0,1,0c0.4,0,0.8,0,1.2-0.1c0.4-0.1,0.9-0.3,1.4-0.6c0.8-0.5,1.3-1,1.5-1.7c0.2-0.6,0.1-1.3-0.3-2        c-0.2-0.4-0.5-0.6-0.9-0.8c-0.3-0.1-0.7-0.2-1.1-0.1c-0.4,0-0.9,0.1-1.3,0.2c-0.5,0.1-1,0.3-1.5,0.4c-0.5,0.1-1,0.2-1.5,0.3        c-0.5,0.1-1,0-1.5-0.1c-0.5-0.1-1-0.3-1.5-0.7c-0.5-0.3-0.9-0.8-1.3-1.5c-0.3-0.5-0.5-1.1-0.6-1.8c-0.1-0.6-0.1-1.3,0.1-1.9        c0.2-0.6,0.5-1.3,0.9-1.9c0.5-0.6,1.1-1.1,1.8-1.6c0.9-0.5,1.8-0.9,2.7-1.1c0.9-0.2,1.8-0.2,2.6,0L643.5,758.6z"></path>
					</g>
				</g>
				<g>
					<g>
						<path class="st0" d="M755,674l-1.9,2.6l-13.9-10.3l1.9-2.6L755,674z"></path>
						<path class="st0" d="M744.6,659.1c0.1-0.1,0.1-0.1,0.2-0.2c0.1,0,0.2-0.1,0.3-0.1c0.1,0,0.2,0,0.4,0l14.7-0.9        c-0.2-0.1-0.5-0.3-0.7-0.4c-0.2-0.1-0.4-0.3-0.6-0.4l-8.6-6l1.6-2.3l14.2,9.8L765,660c-0.1,0.2-0.3,0.4-0.5,0.5        c-0.2,0.1-0.4,0.1-0.6,0.2l-14.6,0.9c0.2,0.1,0.4,0.3,0.7,0.4c0.2,0.1,0.4,0.3,0.6,0.4l8.7,6l-1.6,2.3l-14.2-9.8l1-1.4        C744.4,659.3,744.5,659.2,744.6,659.1z"></path>
						<path class="st0" d="M752.5,647.6l1.4-2.2c0.1-0.2,0.3-0.4,0.5-0.5c0.2-0.1,0.4-0.1,0.7-0.1l11.1,2.1c0.4,0.1,0.8,0.2,1.2,0.3        c0.4,0.1,0.8,0.2,1.3,0.4c-0.7-0.6-1.2-1.3-1.7-1.9l-6.8-9c-0.1-0.2-0.2-0.4-0.2-0.6c0-0.2,0-0.5,0.2-0.7l1.4-2.2l11,15.1        l-1.5,2.5L752.5,647.6z"></path>
						<path class="st0" d="M767.5,622.4l2.2,1.3l-3.8,6.7l4.2,2.4l3-5.3l2.2,1.2l-3,5.3l4.3,2.4l3.8-6.7l2.2,1.3l-5.4,9.5l-15-8.5        L767.5,622.4z"></path>
						<path class="st0" d="M775.8,613.4c0.1,0.2,0.2,0.3,0.2,0.4c0,0.1,0,0.3-0.1,0.4c-0.1,0.1-0.2,0.3-0.4,0.4        c-0.2,0.1-0.4,0.3-0.7,0.4c-0.3,0.2-0.5,0.4-0.8,0.7c-0.3,0.3-0.5,0.6-0.8,1.1c-0.2,0.4-0.3,0.8-0.4,1.1        c-0.1,0.3-0.1,0.7,0,0.9c0.1,0.3,0.2,0.5,0.4,0.8c0.2,0.2,0.4,0.4,0.7,0.6c0.4,0.2,0.7,0.2,1.1,0.2c0.3-0.1,0.7-0.2,1-0.5        c0.3-0.2,0.7-0.5,1-0.9c0.4-0.4,0.7-0.7,1.1-1.1c0.4-0.4,0.8-0.7,1.2-1s0.9-0.6,1.4-0.7c0.5-0.2,1-0.2,1.5-0.2        c0.5,0,1.1,0.2,1.8,0.5c0.7,0.4,1.3,0.8,1.8,1.4c0.5,0.5,0.8,1.2,1,1.9c0.2,0.7,0.3,1.4,0.2,2.2c-0.1,0.8-0.3,1.6-0.8,2.5        c-0.3,0.5-0.6,0.9-0.9,1.4c-0.3,0.4-0.7,0.8-1.1,1.2c-0.4,0.3-0.8,0.6-1.3,0.9c-0.4,0.3-0.9,0.4-1.4,0.6l-0.9-1.5        c-0.1-0.1-0.1-0.3-0.1-0.4c0-0.1,0-0.3,0.1-0.4c0.1-0.2,0.3-0.3,0.5-0.5c0.3-0.1,0.5-0.3,0.9-0.5c0.3-0.2,0.7-0.4,1-0.7        c0.3-0.3,0.7-0.7,0.9-1.2c0.4-0.8,0.6-1.5,0.4-2.2c-0.2-0.6-0.6-1.2-1.3-1.5c-0.4-0.2-0.8-0.3-1.1-0.2        c-0.4,0.1-0.7,0.2-1.1,0.5c-0.3,0.2-0.7,0.5-1,0.9c-0.3,0.4-0.7,0.7-1.1,1.1c-0.4,0.4-0.8,0.7-1.2,1c-0.4,0.3-0.9,0.6-1.4,0.7        c-0.5,0.2-1,0.2-1.6,0.2c-0.6,0-1.2-0.3-1.9-0.6c-0.6-0.3-1-0.7-1.5-1.2c-0.4-0.5-0.7-1.1-0.9-1.7c-0.2-0.6-0.2-1.3-0.2-2.1        c0.1-0.8,0.3-1.5,0.7-2.3c0.5-0.9,1-1.7,1.7-2.3c0.7-0.6,1.4-1.1,2.2-1.3L775.8,613.4z"></path>
						<path class="st0" d="M779.7,598l2.4,1.1l-2.2,4.7l13.2,6.3l-1.4,2.9l-13.2-6.3l-2.2,4.7l-2.4-1.1L779.7,598z"></path>
						<path class="st0" d="M797.7,599.8l-1.3,3l-15.8-6.9l1.3-3L797.7,599.8z"></path>
						<path class="st0" d="M796.8,585.1c0.3,0,0.6,0,0.9,0c-0.2-0.2-0.4-0.4-0.7-0.6c-0.2-0.2-0.4-0.4-0.6-0.6l-7.1-8.2        c-0.1-0.1-0.2-0.2-0.2-0.3c0-0.1-0.1-0.2-0.1-0.3c0-0.1,0-0.2,0-0.3c0-0.1,0.1-0.2,0.1-0.3l0.9-2.3l16.1,6.3l-1,2.6l-10.4-4        c-0.2-0.1-0.4-0.2-0.6-0.3c-0.2-0.1-0.5-0.2-0.7-0.3l7.2,8.4c0.2,0.2,0.3,0.4,0.3,0.6c0,0.2,0,0.5-0.1,0.7l-0.2,0.4        c-0.1,0.2-0.2,0.4-0.4,0.6c-0.2,0.1-0.4,0.2-0.7,0.2l-11.1,1.4c0.3,0.1,0.5,0.1,0.7,0.2c0.2,0.1,0.5,0.2,0.7,0.2l10.4,4        l-1,2.6l-16.1-6.3l0.9-2.3c0.1-0.1,0.1-0.2,0.1-0.3c0-0.1,0.1-0.2,0.2-0.2c0.1-0.1,0.1-0.1,0.2-0.2c0.1,0,0.2-0.1,0.3-0.1        l10.8-1.3C796.2,585.1,796.5,585.1,796.8,585.1z"></path>
						<path class="st0" d="M794.6,558.8l2.4,0.8l-2.4,7.3l4.6,1.5l1.9-5.7l2.3,0.8l-1.9,5.7l4.6,1.5l2.4-7.3l2.4,0.8l-3.4,10.3        l-16.4-5.5L794.6,558.8z"></path>
						<path class="st0" d="M795.9,554.4c0-0.1,0.1-0.2,0.1-0.2c0.1-0.1,0.1-0.1,0.2-0.2c0.1-0.1,0.2-0.1,0.3-0.2l13.6-5.5        c-0.3,0-0.5-0.1-0.8-0.2c-0.3-0.1-0.5-0.1-0.7-0.2l-10.1-2.9l0.8-2.7l16.6,4.7l-0.5,1.6c-0.1,0.2-0.2,0.4-0.3,0.6        c-0.1,0.1-0.3,0.3-0.6,0.4l-13.6,5.5c0.3,0,0.5,0.1,0.7,0.2c0.2,0.1,0.5,0.1,0.7,0.2l10.2,2.9l-0.8,2.7l-16.6-4.8l0.5-1.6        C795.8,554.6,795.9,554.5,795.9,554.4z"></path>
						<path class="st0" d="M802.9,527.5l2.6,0.6l-1.2,5.1l14.2,3.4l-0.7,3.1l-14.2-3.4l-1.2,5.1l-2.6-0.6L802.9,527.5z"></path>
						<path class="st0" d="M814.8,512c1.2,0.2,2.4,0.7,3.3,1.3c1,0.6,1.8,1.4,2.4,2.3c0.6,0.9,1.1,1.9,1.3,3.1        c0.2,1.1,0.2,2.4,0,3.6c-0.3,1.3-0.7,2.4-1.3,3.4c-0.6,1-1.4,1.8-2.3,2.4c-0.9,0.6-2,1-3.1,1.2c-1.1,0.2-2.3,0.2-3.6,0        c-1.2-0.2-2.4-0.7-3.3-1.3c-1-0.6-1.8-1.4-2.4-2.3c-0.6-0.9-1.1-1.9-1.3-3.1c-0.2-1.1-0.2-2.4,0-3.6c0.2-1.3,0.7-2.4,1.3-3.4        c0.6-1,1.4-1.8,2.3-2.4s1.9-1,3.1-1.2C812.4,511.7,813.5,511.7,814.8,512z M814.2,515.2c-0.9-0.2-1.8-0.2-2.6-0.1        c-0.8,0.1-1.5,0.3-2.1,0.7c-0.6,0.4-1.1,0.8-1.5,1.5c-0.4,0.6-0.7,1.3-0.8,2.2c-0.2,0.8-0.2,1.6,0,2.3        c0.1,0.7,0.4,1.4,0.9,1.9c0.4,0.6,1,1,1.7,1.4c0.7,0.4,1.5,0.7,2.4,0.9c0.9,0.2,1.8,0.2,2.6,0.1c0.8-0.1,1.5-0.3,2.1-0.7        c0.6-0.4,1.1-0.9,1.5-1.5c0.4-0.6,0.7-1.3,0.8-2.2c0.2-0.8,0.2-1.6,0-2.3c-0.1-0.7-0.4-1.4-0.9-1.9c-0.4-0.6-1-1-1.7-1.4        C815.9,515.7,815.1,515.4,814.2,515.2z"></path>
						<path class="st0" d="M811.1,499.4c0.2,0.1,0.3,0.2,0.3,0.4c0.1,0.1,0.1,0.3,0,0.4c0,0.2-0.1,0.3-0.3,0.5        c-0.2,0.2-0.3,0.4-0.5,0.6c-0.2,0.2-0.4,0.5-0.5,0.9c-0.2,0.3-0.3,0.8-0.4,1.2c-0.1,0.4-0.1,0.8,0,1.2        c0.1,0.3,0.2,0.6,0.3,0.9c0.2,0.3,0.4,0.5,0.6,0.6c0.3,0.2,0.5,0.2,0.8,0.3c0.4,0.1,0.8,0,1.1-0.2c0.3-0.2,0.6-0.4,0.8-0.8        c0.2-0.3,0.5-0.7,0.7-1.2c0.2-0.5,0.5-0.9,0.7-1.4c0.2-0.5,0.5-0.9,0.8-1.4c0.3-0.4,0.6-0.8,1-1.1c0.4-0.3,0.9-0.6,1.4-0.7        s1.2-0.2,1.9-0.1c0.8,0.1,1.5,0.4,2.1,0.7c0.6,0.4,1.2,0.8,1.6,1.4c0.4,0.6,0.7,1.3,0.9,2c0.2,0.8,0.2,1.6,0.1,2.6        c-0.1,0.5-0.2,1.1-0.4,1.6c-0.2,0.5-0.4,1-0.7,1.5c-0.3,0.5-0.6,0.9-0.9,1.2s-0.7,0.7-1.1,1l-1.4-1.2        c-0.1-0.1-0.2-0.2-0.2-0.4s-0.1-0.3-0.1-0.4c0-0.2,0.1-0.4,0.3-0.6c0.2-0.2,0.4-0.4,0.7-0.7c0.2-0.3,0.5-0.6,0.7-1        c0.2-0.4,0.4-0.9,0.5-1.5c0.1-0.9,0-1.6-0.3-2.2c-0.4-0.6-0.9-0.9-1.7-1c-0.4-0.1-0.8,0-1.2,0.2c-0.3,0.2-0.6,0.4-0.9,0.8        c-0.2,0.3-0.5,0.7-0.7,1.2c-0.2,0.5-0.4,0.9-0.7,1.4c-0.2,0.5-0.5,0.9-0.8,1.4c-0.3,0.4-0.6,0.8-1.1,1.1        c-0.4,0.3-0.9,0.5-1.5,0.7c-0.6,0.1-1.2,0.2-2,0c-0.6-0.1-1.2-0.3-1.8-0.6c-0.5-0.3-1-0.8-1.4-1.3c-0.4-0.5-0.7-1.2-0.8-1.9        c-0.2-0.7-0.2-1.5-0.1-2.4c0.2-1,0.4-1.9,0.9-2.7c0.4-0.8,1-1.5,1.7-2L811.1,499.4z"></path>
					</g>
				</g>
			</g>
		</g>
		<path class="st3" d="M776.8,165c-3.1-3.6-8.7-3.7-12.1-0.4l-0.9,0.9c63.7,70.3,104.1,162.1,109.1,263.3h1.3c4.8,0,8.6-4,8.3-8.8    C875.9,322.7,837.2,234.1,776.8,165z"></path>
		<path class="st4" d="M734.3,135.9l0.9-0.9c3.4-3.4,3.2-8.9-0.4-12.1C665.6,62.6,577.1,23.9,479.8,17.3c-4.8-0.3-8.8,3.5-8.8,8.3    v1.3C572.1,31.8,663.9,72.2,734.3,135.9z"></path>
		<path class="st5" d="M165.8,135.9C236.1,72.2,328,31.8,429.1,26.9v-1.3c0-4.8-4-8.6-8.8-8.3C323,23.9,234.4,62.6,165.3,122.9    c-3.6,3.1-3.7,8.7-0.4,12.1L165.8,135.9z"></path>
		<path class="st6" d="M136.2,165.5l-0.9-0.9c-3.4-3.4-8.9-3.2-12.1,0.4C62.9,234.1,24.2,322.7,17.6,420c-0.3,4.8,3.5,8.8,8.3,8.8    h1.3C32.1,327.7,72.5,235.8,136.2,165.5z"></path>
		<path class="st7" d="M27.2,470.7h-1.3c-4.8,0-8.6,4-8.3,8.8c6.6,97.3,45.3,185.9,105.7,255.1c3.1,3.6,8.7,3.7,12.1,0.4l0.9-0.9    C72.5,663.6,32.1,571.8,27.2,470.7z"></path>
		<path class="st1" d="M165.8,763.6l-0.9,0.9c-3.4,3.4-3.2,8.9,0.4,12.1c69.2,60.3,157.7,99.1,255.1,105.7c4.8,0.3,8.8-3.5,8.8-8.3    v-1.3C328,867.7,236.1,827.3,165.8,763.6z"></path>
		<path class="st8" d="M735.2,764.5l-0.9-0.9C663.9,827.3,572.1,867.7,471,872.6v1.3c0,4.8,4,8.6,8.8,8.3    c97.4-6.6,185.9-45.3,255.1-105.7C738.4,773.4,738.6,767.8,735.2,764.5L735.2,764.5z"></path>
		<path class="st9" d="M874.2,470.7h-1.3c-4.9,101.2-45.3,193-109.1,263.3l0.9,0.9c3.4,3.4,8.9,3.2,12.1-0.4    c60.3-69.2,99.1-157.7,105.7-255.1C882.8,474.7,879,470.7,874.2,470.7z"></path>
	</g>
</g>
</svg>