<svg xmlns="http://www.w3.org/2000/svg" xmlns:xlink="http://www.w3.org/1999/xlink" id="Camada_1" x="0px" y="0px" viewBox="0 0 1200 299.1" style="enable-background:new 0 0 1200 299.1;" xml:space="preserve">
<style type="text/css">
	.st0{fill:#101820;}
	.st1{fill:#FC4C02;}
</style>
<rect x="871.8" y="72.8" class="st0" width="35.3" height="167"></rect>
<path class="st0" d="M359.6,176.6L359.6,176.6c0,36.3,29.4,65.7,65.7,65.7h7.4c36.3,0,65.7-29.4,65.7-65.7v0  c0-36.3-29.4-65.7-65.7-65.7h-7.4C389.1,110.9,359.6,140.3,359.6,176.6z M394.9,192.7v-32.1c0-18.9,15.3-34.2,34.2-34.2h0  c18.9,0,34.2,15.3,34.2,34.2v32.1c0,18.9-15.3,34.2-34.2,34.2h0C410.2,226.8,394.9,211.5,394.9,192.7z"></path>
<path class="st0" d="M198.6,57.8v10h14.9c3.5,0,6.3,2.8,6.3,6.3v165.7H255V72.4c0-8-6.5-14.6-14.6-14.6H198.6z"></path>
<path class="st0" d="M925.4,113.4v10h14.9c3.5,0,6.3,2.8,6.3,6.3v110.1h35.3V128c0-8-6.5-14.6-14.6-14.6H925.4z"></path>
<path class="st0" d="M275,57.8v10h14.9c3.5,0,6.3,2.8,6.3,6.3v165.7h35.3V72.4c0-8-6.5-14.6-14.6-14.6H275z"></path>
<path class="st0" d="M187.6,239.8L123,81.1c-2-5-6.9-8.2-12.2-8.2H55.3v10h11.7c4.4,0,7.5,4.5,5.9,8.6L15,239.8h15.5L88.1,92  l60.2,147.8H187.6z"></path>
<polygon class="st0" points="812.7,239.8 797.3,239.8 862.3,72.8 877.8,72.8 "></polygon>
<polygon class="st0" points="1117.8,73 981.9,73 981.9,83 1023.7,83 1023.7,239.8 1059,239.8 1059,83 1117.8,83 "></polygon>
<path class="st0" d="M812.7,239.8L748.3,81.5c-2.1-5.3-7.3-8.7-12.9-8.7L675,73v10h14c4,0,7.2,3.2,7.2,7.2v149.7h15.5V88.3  l61.7,151.5H812.7z"></path>
<path class="st0" d="M608.8,239.8L561,122.4c-2.3-5.5-7.6-9.1-13.6-9.1h-50.8v10h20.3c3,0,5.8,1.8,6.9,4.6l45.6,112H608.8z"></path>
<path class="st0" d="M661.1,113.2h-15.5L586,266.3c-1.2,3-4.1,5-7.4,5h-42.5l7.8,19.1l37.9-0.1c6.2,0,11.7-3.8,13.9-9.5L661.1,113.2  z"></path>
<circle class="st1" cx="1160.6" cy="30" r="24.5"></circle>
</svg>